<svg width="16" height="16" viewBox="0 0 16 16" fill="none" xmlns="http://www.w3.org/2000/svg">
<path fill-rule="evenodd" clip-rule="evenodd" d="M1 8C0.999999 11.866 4.13401 15 8 15C11.866 15 15 11.866 15 8C15 4.13401 11.866 1 8 1C4.13401 0.999999 1 4.13401 1 8ZM-3.49691e-07 8C-5.4282e-07 12.4183 3.58172 16 8 16C12.4183 16 16 12.4183 16 8C16 3.58172 12.4183 -1.56562e-07 8 -3.49691e-07C3.58172 -5.4282e-07 -1.56562e-07 3.58172 -3.49691e-07 8Z"/>
<path d="M7.52009 12.2667C7.34336 12.0899 7.34336 11.8034 7.52009 11.6267L10.7932 8.35355C10.9885 8.15829 10.9885 7.8417 10.7932 7.64644L7.52009 4.37333C7.34336 4.1966 7.34336 3.91006 7.52009 3.73333C7.69682 3.5566 7.98336 3.5566 8.16009 3.73333L12.0732 7.64644C12.2685 7.8417 12.2685 8.15829 12.0732 8.35355L8.16009 12.2667C7.98336 12.4434 7.69682 12.4434 7.52009 12.2667Z"/>
<path d="M11.7334 8.03331L11.7334 7.96664C11.7334 7.6905 11.5095 7.46664 11.2334 7.46664L4.2334 7.46664C3.95726 7.46664 3.7334 7.6905 3.7334 7.96664L3.7334 8.03331C3.7334 8.30945 3.95726 8.53331 4.2334 8.53331L11.2334 8.53331C11.5095 8.53331 11.7334 8.30945 11.7334 8.03331Z"/>
</svg>
