<svg width="28" height="28" viewBox="0 0 28 28" fill="none" xmlns="http://www.w3.org/2000/svg">
<path d="M6.6501 0.350098H0.350098V6.6501H6.6501V0.350098Z" fill="#E3E3E3"/>
<path d="M6.3 0.7V6.3H0.7V0.7H6.3ZM7 0H0V7H7V0Z" fill="#C4C4C4"/>
<path d="M6.6501 10.8501H0.350098V17.1501H6.6501V10.8501Z" fill="#E3E3E3"/>
<path d="M6.3 11.2V16.8H0.7V11.2H6.3ZM7 10.5H0V17.5H7V10.5Z" fill="#C4C4C4"/>
<path d="M6.6501 21.3501H0.350098V27.6501H6.6501V21.3501Z" fill="#E3E3E3"/>
<path d="M6.3 21.7V27.3H0.7V21.7H6.3ZM7 21H0V28H7V21Z" fill="#C4C4C4"/>
<path d="M4.16691 16.3335L1.1665 13.1401L2.56736 11.6492L4.16691 13.341L7.93232 9.3335L9.33317 10.8244L4.16691 16.3335Z" fill="#AAAAAA"/>
<rect x="10.5" y="2.3335" width="17.5" height="2.33333" fill="#C4C4C4"/>
<rect x="10.5" y="12.8335" width="17.5" height="2.33333" fill="#C4C4C4"/>
<rect x="10.5" y="23.3335" width="17.5" height="2.33333" fill="#C4C4C4"/>
</svg>
