<svg width="17" height="17" viewBox="0 0 17 17" fill="none" xmlns="http://www.w3.org/2000/svg">
<path fill-rule="evenodd" clip-rule="evenodd" d="M8.5 15.9375C12.6076 15.9375 15.9375 12.6076 15.9375 8.5C15.9375 4.39238 12.6076 1.0625 8.5 1.0625C4.39238 1.0625 1.0625 4.39238 1.0625 8.5C1.0625 12.6076 4.39238 15.9375 8.5 15.9375ZM8.5 17C13.1944 17 17 13.1944 17 8.5C17 3.80558 13.1944 0 8.5 0C3.80558 0 0 3.80558 0 8.5C0 13.1944 3.80558 17 8.5 17Z" fill="#6E6E6E"/>
<path d="M7.4375 4.25H8.5V8.81875L12.5375 11.6875L11.8696 12.75L7.4375 9.5625V4.25Z" fill="#6E6E6E"/>
</svg>
