<svg width="16" height="14" viewBox="0 0 16 14" fill="none" xmlns="http://www.w3.org/2000/svg">
<path d="M7.5 7.97011L9.82812 9.49796L9.00522 10.752L6 8.77989V4H7.5V7.97011Z" fill="#6E6E6E"/>
<path d="M11.1145 12.6631C9.84245 13.5873 8.2963 14.0563 6.72518 13.9946C5.15406 13.9329 3.64948 13.344 2.45386 12.3228C1.25825 11.3017 0.441251 9.90775 0.134503 8.36563C-0.172244 6.82351 0.0491298 5.22303 0.762953 3.82207C1.47678 2.42111 2.64148 1.30127 4.06938 0.642999C5.49728 -0.0152737 7.10523 -0.173643 8.63411 0.19341C10.163 0.560462 11.5238 1.43156 12.4972 2.66634C13.4706 3.90112 14 5.42766 14 6.99999L12.74 7C12.74 5.71068 12.3059 4.45892 11.5077 3.4464C10.7095 2.43388 9.59366 1.71958 8.33997 1.4186C7.08628 1.11761 5.76777 1.24748 4.59689 1.78726C3.42601 2.32704 2.47096 3.24531 1.88562 4.3941C1.30029 5.54288 1.11876 6.85528 1.37029 8.11982C1.62183 9.38436 2.29177 10.5274 3.27217 11.3647C4.25257 12.2021 5.48633 12.685 6.77465 12.7356C8.06297 12.7862 9.33081 12.4016 10.3739 11.6438L11.1145 12.6631Z" fill="#6E6E6E"/>
<path d="M13.5 10L11 7H16L13.5 10Z" fill="#6E6E6E"/>
</svg>
