<svg width="16" height="16" viewBox="0 0 16 16" fill="none" xmlns="http://www.w3.org/2000/svg">
<path d="M12.9046 13.8506L2.14938 3.09544C1.95021 2.89627 1.95021 2.54772 2.14938 2.34855L2.34855 2.14938C2.54772 1.95021 2.89627 1.95021 3.09544 2.14938L13.8506 12.9046C14.0498 13.1037 14.0498 13.4523 13.8506 13.6515L13.6515 13.8506C13.4523 14.0498 13.1037 14.0498 12.9046 13.8506Z" fill="#4C4C4C"/>
<path d="M3.1405 13.8563L13.8512 3.09596C14.0496 2.89669 14.0496 2.54798 13.8512 2.34871L13.6529 2.14945C13.4545 1.95018 13.1074 1.95018 12.9091 2.14945L2.14876 12.8599C1.95041 13.0592 1.95041 13.4079 2.14876 13.6072L2.34711 13.8064C2.59504 14.0555 2.94215 14.0555 3.1405 13.8563Z" fill="#4C4C4C"/>
</svg>
