<svg width="15" height="15" viewBox="0 0 15 15" fill="none" xmlns="http://www.w3.org/2000/svg">
<path d="M14.6494 9.51087L13.2656 8.53261V8.47826C13.2656 8.36957 13.2656 8.31522 13.3233 8.20652C13.3233 8.09783 13.3233 8.04348 13.3233 7.93478C13.3233 7.82609 13.3233 7.77174 13.3233 7.66304C13.3233 7.55435 13.3233 7.44565 13.3233 7.33696C13.3233 7.28261 13.3233 7.28261 13.3233 7.22826V7.17391V7.11957C13.3233 7.11957 13.3233 7.11957 13.3233 7.06522V7.01087C13.3233 6.95652 13.3233 6.90217 13.2656 6.79348L14.6494 5.81522C14.9953 5.65217 15.1106 5.21739 14.88 4.94565L13.7269 3.04348C13.5539 2.71739 13.0927 2.6087 12.8044 2.82609L11.19 3.47826L11.1324 3.42391L11.0747 3.36957C11.0747 3.36957 11.017 3.36957 11.017 3.31522C11.017 3.31522 10.9594 3.31522 10.9594 3.26087L10.9017 3.20652C10.8441 3.20652 10.8441 3.15217 10.7864 3.15217C10.7288 3.09783 10.6711 3.09783 10.6134 3.04348C10.6134 3.04348 10.6134 3.04348 10.5558 3.04348C10.4405 2.98913 10.3252 2.93478 10.2098 2.88043C10.0369 2.82609 9.92157 2.71739 9.7486 2.66304H9.69094L9.51797 0.978261C9.345 0.380435 9.05672 0 8.65313 0H6.34687C5.94328 0 5.655 0.380435 5.655 0.706522L5.48203 2.3913C5.48203 2.3913 5.48203 2.3913 5.48203 2.44565C5.48203 2.44565 5.48203 2.44565 5.42437 2.44565C5.36671 2.44565 5.30906 2.5 5.2514 2.5C5.2514 2.5 5.2514 2.5 5.19375 2.5C5.13609 2.5 5.07843 2.55435 5.02078 2.55435C5.02078 2.55435 4.96312 2.55435 4.96312 2.6087C4.90546 2.6087 4.84781 2.66304 4.84781 2.66304C4.79015 2.66304 4.79015 2.71739 4.73249 2.71739C4.73249 2.71739 4.67484 2.71739 4.67484 2.77174C4.61718 2.82609 4.50187 2.88043 4.44421 2.88043C4.38656 2.93478 4.3289 2.93478 4.27124 2.98913C3.98296 3.20652 3.92531 3.26087 3.86765 3.26087C3.86765 3.26087 3.86765 3.26087 3.80999 3.26087C3.80999 3.26087 3.75234 3.26087 3.75234 3.31522L2.19561 2.66304C1.84968 2.5 1.44608 2.6087 1.27311 2.93478L0.119985 4.83696C-0.0529841 5.16304 0.0623286 5.54348 0.35061 5.70652L1.73436 6.68478V6.73913V6.79348C1.73436 6.84783 1.73436 6.95652 1.67671 7.01087V7.06522C1.67671 7.11957 1.67671 7.17391 1.67671 7.28261V7.33696C1.67671 7.3913 1.67671 7.5 1.67671 7.55435C1.67671 7.66304 1.67671 7.77174 1.67671 7.88043C1.67671 7.93478 1.67671 7.93478 1.67671 7.98913V8.04348V8.09783C1.73436 8.26087 1.73436 8.31522 1.73436 8.42391V8.47826L0.35061 9.45652C0.00467221 9.61957 -0.11064 10.0543 0.119985 10.3261L1.27311 12.2283C1.44608 12.5543 1.90733 12.663 2.19561 12.4457L3.80999 11.7935C3.80999 11.7935 3.80999 11.7935 3.86765 11.7935C3.86765 11.7935 3.92531 11.7935 3.92531 11.8478L3.98296 11.9022C3.98296 11.9022 4.04062 11.9022 4.04062 11.9565L4.09827 12.0109C4.09827 12.0109 4.09827 12.0109 4.15593 12.0109L4.21359 12.0652C4.21359 12.0652 4.21359 12.0652 4.27124 12.0652C4.38656 12.1196 4.44421 12.1739 4.55953 12.2283H4.61718C4.73249 12.2826 4.84781 12.337 4.96312 12.3913C5.13609 12.5 5.30906 12.5543 5.53968 12.6087L5.71265 14.2935C5.71265 14.6739 6.00093 15 6.40453 15H8.71078C9.11438 15 9.40266 14.6196 9.40266 14.2935L9.57563 12.6087C9.57563 12.6087 9.57563 12.6087 9.63329 12.5543C9.69094 12.5543 9.7486 12.5 9.80625 12.5C9.80625 12.5 9.80626 12.5 9.86391 12.5C9.92157 12.5 9.97922 12.4457 10.0369 12.4457C10.0369 12.4457 10.0945 12.4457 10.0945 12.3913C10.1522 12.3913 10.2098 12.337 10.2098 12.337C10.2675 12.337 10.2675 12.2826 10.3252 12.2826C10.3252 12.2826 10.3828 12.2826 10.3828 12.2283C10.4405 12.1739 10.5558 12.1196 10.6134 12.1196C10.6134 12.1196 10.6134 12.1196 10.6711 12.1196C10.7288 12.0652 10.7864 12.0109 10.8441 12.0109C10.9017 11.9565 10.9594 11.9022 11.0747 11.8478C11.0747 11.8478 11.1324 11.8478 11.1324 11.7935L12.7467 12.4457C13.0927 12.6087 13.4963 12.5 13.6692 12.2283L14.8224 10.3261C15.1106 10.1087 14.9953 9.67391 14.6494 9.51087ZM7.5 9.78261C6.23156 9.78261 5.19375 8.80435 5.19375 7.6087C5.19375 6.41304 6.23156 5.43478 7.5 5.43478C8.76844 5.43478 9.80625 6.41304 9.80625 7.6087C9.80625 8.80435 8.76844 9.78261 7.5 9.78261Z" fill="#6E6E6E"/>
</svg>
