<svg width="24" height="24" viewBox="0 0 24 24" fill="none" xmlns="http://www.w3.org/2000/svg">
<path fill-rule="evenodd" clip-rule="evenodd" d="M15 3C15 4.65685 13.6569 6 12 6C10.3431 6 9 4.65685 9 3C9 1.34315 10.3431 0 12 0C13.6569 0 15 1.34315 15 3ZM12 15C13.6569 15 15 13.6569 15 12C15 10.3431 13.6569 9 12 9C10.3431 9 9 10.3431 9 12C9 13.6569 10.3431 15 12 15ZM12 24C13.6569 24 15 22.6569 15 21C15 19.3431 13.6569 18 12 18C10.3431 18 9 19.3431 9 21C9 22.6569 10.3431 24 12 24Z" fill="#6E6E6E"/>
</svg>
