<svg version="1.1" id="Cost" xmlns="http://www.w3.org/2000/svg" xmlns:xlink="http://www.w3.org/1999/xlink" x="0px" y="0px" viewBox="0 0 32 32" enable-background="new 0 0 32 32" xml:space="preserve"><g id="stacks"><rect x="3" y="16" fill="#C2DCD3" width="7" height="2"></rect><rect x="3" y="19" fill="#C2DCD3" width="7" height="2"></rect><rect x="3" y="22" fill="#C2DCD3" width="7" height="2"></rect><rect x="3" y="25" fill="#C2DCD3" width="7" height="2"></rect><rect x="3" y="28" fill="#C2DCD3" width="7" height="2"></rect><rect x="12" y="16" fill="#C2DCD3" width="7" height="2"></rect><rect x="12" y="19" fill="#C2DCD3" width="7" height="2"></rect><rect x="12" y="22" fill="#C2DCD3" width="7" height="2"></rect><rect x="12" y="25" fill="#C2DCD3" width="7" height="2"></rect><rect x="12" y="4" fill="#C2DCD3" width="7" height="2"></rect><rect x="12" y="7" fill="#C2DCD3" width="7" height="2"></rect><rect x="12" y="10" fill="#C2DCD3" width="7" height="2"></rect><rect x="12" y="13" fill="#C2DCD3" width="7" height="2"></rect><rect x="21" y="22" fill="#C2DCD3" width="7" height="2"></rect><rect x="21" y="25" fill="#C2DCD3" width="7" height="2"></rect><rect x="21" y="28" fill="#C2DCD3" width="7" height="2"></rect><rect x="12" y="28" fill="#C2DCD3" width="7" height="2"></rect></g><circle id="left-circle" fill="#477378" cx="6.5" cy="10.5" r="3.5"></circle><circle id="right-circle" fill="#E58B1C" cx="24.5" cy="16.5" r="3.5"></circle></svg>