
<svg version="1.1" id="Layer_1" xmlns="http://www.w3.org/2000/svg" viewBox="0 0 32 32">
<path style="fill-rule:evenodd;clip-rule:evenodd;fill:#6E6E6E;" d="M26.71,10.69c2.36,0,4.28,1.9,4.28,4.25
	c0,2.35-1.92,4.25-4.28,4.25c-2.37,0-4.28-1.9-4.28-4.25C22.43,12.6,24.35,10.69,26.71,10.69z"/>
<path style="fill-rule:evenodd;clip-rule:evenodd;fill:#6E6E6E;" d="M5.4,2.13c2.36,0,4.28,1.91,4.28,4.27s-1.92,4.27-4.28,4.27
	c-2.36,0-4.28-1.91-4.28-4.27S3.04,2.13,5.4,2.13z"/>
<path style="fill-rule:evenodd;clip-rule:evenodd;fill:#6E6E6E;" d="M1.12,29.87h8.53V32H1.12V29.87z"/>
<path style="fill-rule:evenodd;clip-rule:evenodd;fill:#6E6E6E;" d="M1.12,25.6h8.53v2.13H1.12V25.6z"/>
<path style="fill-rule:evenodd;clip-rule:evenodd;fill:#6E6E6E;" d="M1.12,21.33h8.53v2.13H1.12V21.33z"/>
<path style="fill-rule:evenodd;clip-rule:evenodd;fill:#6E6E6E;" d="M1.12,17.07h8.53v2.13H1.12V17.07z"/>
<path style="fill-rule:evenodd;clip-rule:evenodd;fill:#6E6E6E;" d="M1.12,12.8h8.53v2.13H1.12V12.8z"/>
<path style="fill-rule:evenodd;clip-rule:evenodd;fill:#6E6E6E;" d="M11.79,0h8.53v2.13h-8.53V0z"/>
<path style="fill-rule:evenodd;clip-rule:evenodd;fill:#6E6E6E;" d="M11.79,4.27h8.53V6.4h-8.53V4.27z"/>
<path style="fill-rule:evenodd;clip-rule:evenodd;fill:#6E6E6E;" d="M11.79,8.53h8.53v2.13h-8.53V8.53z"/>
<path style="fill-rule:evenodd;clip-rule:evenodd;fill:#6E6E6E;" d="M11.79,12.8h8.53v2.13h-8.53V12.8z"/>
<path style="fill-rule:evenodd;clip-rule:evenodd;fill:#6E6E6E;" d="M11.79,17.07h8.53v2.13h-8.53V17.07z"/>
<path style="fill-rule:evenodd;clip-rule:evenodd;fill:#6E6E6E;" d="M11.79,21.33h8.53v2.13h-8.53V21.33z"/>
<path style="fill-rule:evenodd;clip-rule:evenodd;fill:#6E6E6E;" d="M11.79,25.6h8.53v2.13h-8.53V25.6z"/>
<path style="fill-rule:evenodd;clip-rule:evenodd;fill:#6E6E6E;" d="M11.79,29.87h8.53V32h-8.53V29.87z"/>
<path style="fill-rule:evenodd;clip-rule:evenodd;fill:#6E6E6E;" d="M22.46,21.33h8.53v2.13h-8.53V21.33z"/>
<path style="fill-rule:evenodd;clip-rule:evenodd;fill:#6E6E6E;" d="M22.46,25.6h8.53v2.13h-8.53V25.6z"/>
<path style="fill-rule:evenodd;clip-rule:evenodd;fill:#6E6E6E;" d="M22.46,29.87h8.53V32h-8.53V29.87z"/>
</svg>
