<?xml version="1.0" encoding="utf-8"?>
<!-- Generator: Adobe Illustrator 19.2.1, SVG Export Plug-In . SVG Version: 6.00 Build 0)  -->
<svg version="1.1" id="critical" xmlns="http://www.w3.org/2000/svg" xmlns:xlink="http://www.w3.org/1999/xlink" x="0px" y="0px"
	 viewBox="0 0 32 32" style="enable-background:new 0 0 32 32;" xml:space="preserve">
<path d="M25.8,27.8L4.2,6.2c-0.4-0.4-0.4-1.1,0-1.5l0.4-0.4c0.4-0.4,1.1-0.4,1.5,0l21.6,21.6c0.4,0.4,0.4,1.1,0,1.5l-0.4,0.4
	C26.9,28.2,26.2,28.2,25.8,27.8z"/>
<path d="M6.2,27.8L27.8,6.2c0.4-0.4,0.4-1.1,0-1.5l-0.4-0.4c-0.4-0.4-1.1-0.4-1.5,0L4.2,25.8c-0.4,0.4-0.4,1.1,0,1.5l0.4,0.4
	C5.1,28.2,5.8,28.2,6.2,27.8z"/>
</svg>
