<svg width="16" height="16" viewBox="0 0 16 16" fill="" xmlns="http://www.w3.org/2000/svg">
<path d="M2.46154 12.4545H0V13.7273H2.46154V12.4545ZM6.76923 11.1818H4.30769C3.97115 11.1818 3.69231 11.4702 3.69231 11.8182V14.3636C3.69231 14.7116 3.97115 15 4.30769 15H6.76923C7.10577 15 7.38462 14.7116 7.38462 14.3636V11.8182C7.38462 11.4702 7.10577 11.1818 6.76923 11.1818ZM7.38462 7.36364H0V8.63636H7.38462V7.36364ZM2.46154 2.27273H0V3.54545H2.46154V2.27273ZM16 12.4545H8.61539V13.7273H16V12.4545ZM6.76923 1H4.30769C3.97115 1 3.69231 1.28835 3.69231 1.63636V4.18182C3.69231 4.52983 3.97115 4.81818 4.30769 4.81818H6.76923C7.10577 4.81818 7.38462 4.52983 7.38462 4.18182V1.63636C7.38462 1.28835 7.10577 1 6.76923 1ZM11.6923 6.09091H9.23077C8.89423 6.09091 8.61539 6.37926 8.61539 6.72727V9.27273C8.61539 9.62074 8.89423 9.90909 9.23077 9.90909H11.6923C12.0288 9.90909 12.3077 9.62074 12.3077 9.27273V6.72727C12.3077 6.37926 12.0288 6.09091 11.6923 6.09091ZM16 7.36364H13.5385V8.63636H16V7.36364ZM16 2.27273L8.61539 2.27273V3.54545L16 3.54545V2.27273Z" fill=""/>
</svg>
