     <svg version="1.1" id="Layer_1" xmlns="http://www.w3.org/2000/svg" xmlns:xlink="http://www.w3.org/1999/xlink" x="0px" y="0px"
            viewBox="0 0 32 32" enable-background="new 0 0 32 32" xml:space="preserve">
            <path fill="#C2DCD3" d="M13.67,23.28l0.36,0.44l-0.54,6.53c0,0-3.72-2.38-7,1l2.22-9.64c0.02,0,0.04,0,0.06,0l0.85-0.06l0.25,0.81
                                    c0.07,0.22,0.16,0.42,0.29,0.61c0.5,0.74,1.38,1.08,2.26,0.87c0.17-0.04,0.33-0.1,0.49-0.18L13.67,23.28z M22.15,21.7l-0.27,0.81
                                    c-0.05,0.17-0.13,0.33-0.22,0.48c-0.46,0.76-1.33,1.15-2.21,0.98c-0.22-0.04-0.43-0.12-0.64-0.23l-0.75-0.4l-0.12,0.13l0.56,6.78
                                    c0,0,3.72-2.38,7,1l-2.19-9.48c-0.11,0.01-0.22,0.03-0.33,0.02L22.15,21.7z" />
            <path fill="#477378" d="M27.28,11.71c-0.06-0.08-0.12-0.15-0.2-0.22l-0.64-0.56C26.1,10.65,26,10.1,26.21,9.71l0.4-0.75
                                    c0.06-0.12,0.1-0.24,0.13-0.36c0.09-0.47-0.11-0.92-0.52-1.17c-0.08-0.05-0.17-0.09-0.27-0.12l-0.81-0.27
                                    C24.72,6.91,24.42,6.44,24.46,6l0.08-0.85c0.01-0.13,0.01-0.26-0.02-0.38c-0.09-0.46-0.45-0.81-0.93-0.88
                                    c-0.09-0.01-0.19-0.02-0.3-0.01l-0.85,0.06c-0.44,0.03-0.9-0.29-1.03-0.71l-0.25-0.81c-0.04-0.13-0.09-0.24-0.16-0.34
                                    c-0.26-0.39-0.72-0.57-1.19-0.46c-0.09,0.02-0.19,0.06-0.28,0.1l-0.76,0.38c-0.39,0.2-0.94,0.08-1.22-0.26l-0.54-0.66
                                    c-0.08-0.1-0.18-0.19-0.28-0.25c-0.39-0.26-0.89-0.25-1.28,0.03c-0.08,0.06-0.15,0.12-0.22,0.2l-0.56,0.64
                                    c-0.29,0.33-0.84,0.44-1.23,0.23l-0.75-0.4c-0.12-0.06-0.24-0.1-0.36-0.13c-0.46-0.09-0.92,0.11-1.17,0.52
                                    c-0.05,0.08-0.09,0.17-0.12,0.27L10.8,3.11c-0.14,0.42-0.61,0.72-1.05,0.68L8.9,3.71C8.77,3.7,8.64,3.71,8.53,3.73
                                    C8.06,3.82,7.72,4.18,7.65,4.66c-0.01,0.09-0.02,0.19-0.01,0.3L7.7,5.8c0.03,0.44-0.29,0.9-0.71,1.03L6.18,7.08
                                    C6.05,7.11,5.93,7.17,5.83,7.24C5.44,7.5,5.26,7.96,5.38,8.43c0.02,0.09,0.06,0.19,0.1,0.28l0.38,0.76c0.2,0.39,0.08,0.94-0.26,1.22
                                    l-0.66,0.54c-0.1,0.08-0.19,0.18-0.25,0.28c-0.26,0.39-0.25,0.89,0.03,1.28c0.06,0.08,0.12,0.15,0.2,0.22l0.64,0.56
                                    C5.9,13.85,6,14.4,5.79,14.79l-0.4,0.75c-0.06,0.12-0.1,0.24-0.13,0.36c-0.09,0.47,0.11,0.92,0.52,1.17
                                    c0.08,0.05,0.17,0.09,0.27,0.12l0.81,0.27c0.42,0.14,0.72,0.61,0.68,1.05l-0.08,0.85c-0.01,0.13-0.01,0.26,0.02,0.38
                                    c0.09,0.46,0.45,0.81,0.93,0.88c0.09,0.01,0.19,0.02,0.3,0.01l0.85-0.06c0.44-0.03,0.9,0.29,1.03,0.71l0.25,0.81
                                    c0.04,0.13,0.09,0.24,0.16,0.34c0.26,0.39,0.72,0.57,1.19,0.46c0.09-0.02,0.19-0.06,0.28-0.1l0.76-0.38
                                    c0.39-0.2,0.94-0.08,1.22,0.26l0.54,0.66c0.08,0.1,0.18,0.19,0.28,0.25c0.06,0.04,0.13,0.07,0.19,0.1c0.35,0.15,0.76,0.11,1.09-0.14
                                    c0.08-0.06,0.15-0.12,0.22-0.2l0.56-0.64c0.29-0.33,0.84-0.44,1.23-0.23l0.75,0.4c0.12,0.06,0.24,0.1,0.36,0.13
                                    c0.47,0.09,0.92-0.11,1.17-0.52c0.05-0.08,0.09-0.17,0.12-0.27l0.27-0.81c0.14-0.42,0.61-0.72,1.05-0.68l0.85,0.08
                                    c0.13,0.01,0.26,0.01,0.38-0.02c0.46-0.09,0.81-0.45,0.88-0.93c0.01-0.09,0.02-0.19,0.01-0.3L24.3,18.7
                                    c-0.03-0.44,0.29-0.9,0.71-1.03l0.81-0.25c0.13-0.04,0.24-0.09,0.34-0.16c0.39-0.26,0.57-0.72,0.46-1.19
                                    c-0.02-0.09-0.06-0.19-0.1-0.28l-0.38-0.76c-0.2-0.39-0.08-0.94,0.26-1.22l0.66-0.54c0.1-0.08,0.19-0.18,0.25-0.28
                                    C27.57,12.6,27.56,12.1,27.28,11.71z M16,19.5c-4.14,0-7.5-3.36-7.5-7.5s3.36-7.5,7.5-7.5s7.5,3.36,7.5,7.5S20.14,19.5,16,19.5z"
            />
            <circle fill="#FFFFFF" cx="16" cy="12" r="6.5" />
            <polygon fill="#E58B1C" points="16,8.2 17.24,10.7 20,11.1 18,13.05 18.47,15.8 16,14.5 13.53,15.8 14,13.05 12,11.1 14.76,10.7 "
            />
        </svg>