<svg width="16" height="16" viewBox="0 0 16 16" fill="none" xmlns="http://www.w3.org/2000/svg">
<path d="M12.3373 7.58934C12.3373 6.34662 11.8102 5.14828 10.8878 4.3272C9.96544 3.50611 8.73558 3.10667 7.50572 3.23982C5.50719 3.46173 3.88201 5.1039 3.68435 7.12332C3.55258 8.477 4.01378 9.80849 4.9801 10.7627C5.33149 11.1178 5.59503 11.5172 5.74877 11.9611C5.57307 12.0054 5.4413 12.183 5.4413 12.3827C5.4413 12.6268 5.63896 12.8265 5.88054 12.8265V13.3369C5.63896 13.3369 5.4413 13.5367 5.4413 13.7808C5.4413 14.0249 5.63896 14.2246 5.88054 14.2246V14.4021C5.88054 15.3342 6.75901 15.9999 8.01084 15.9999C9.26266 15.9999 10.1411 15.3564 10.1411 14.4021V14.2246C10.3827 14.2246 10.5804 14.0249 10.5804 13.7808C10.5804 13.5367 10.3827 13.3369 10.1411 13.3369V12.8265C10.3827 12.8265 10.5804 12.6268 10.5804 12.3827C10.5804 12.183 10.4486 12.0054 10.2729 11.9611C10.4266 11.5172 10.6902 11.1178 11.0416 10.7627C11.8542 9.91945 12.3373 8.78768 12.3373 7.58934ZM9.2407 12.8043V13.3147H6.73705V12.8043H9.2407ZM7.98888 15.0901C7.48375 15.0901 6.73705 14.9125 6.73705 14.3799V14.2024H9.2407V14.3799C9.2407 14.9125 8.494 15.0901 7.98888 15.0901ZM9.32855 11.9167H6.6492C6.47351 11.2509 6.10016 10.6074 5.57307 10.097C4.80441 9.34247 4.40909 8.27728 4.54087 7.1899C4.71656 5.56992 5.99035 4.26062 7.59356 4.08309C7.72534 4.0609 7.85711 4.0609 7.98888 4.0609C8.84539 4.0609 9.65798 4.37158 10.2949 4.94856C11.0196 5.6143 11.4589 6.56854 11.4589 7.56715C11.4589 8.52138 11.0855 9.43123 10.3827 10.097C9.85564 10.6074 9.50424 11.2509 9.32855 11.9167Z" fill="black"/>
<path d="M7.98987 2.21915C8.23145 2.21915 8.42911 2.01942 8.42911 1.77532V0.443829C8.42911 0.199723 8.23145 0 7.98987 0C7.74829 0 7.55064 0.199723 7.55064 0.443829V1.77532C7.55064 2.01942 7.74829 2.21915 7.98987 2.21915Z" fill="black"/>
<path d="M3.61837 3.79477C3.70622 3.88354 3.81603 3.92792 3.92584 3.92792C4.03565 3.92792 4.14546 3.88354 4.23331 3.79477C4.409 3.61724 4.409 3.35094 4.23331 3.17341L3.31091 2.21918C3.13521 2.04165 2.87167 2.04165 2.69598 2.21918C2.52028 2.39671 2.52028 2.66301 2.69598 2.84054L3.61837 3.79477Z" fill="black"/>
<path d="M2.69619 7.58946C2.69619 7.34535 2.49853 7.14563 2.25695 7.14563H0.939237C0.697657 7.14563 0.5 7.34535 0.5 7.58946C0.5 7.83357 0.697657 8.03329 0.939237 8.03329H2.25695C2.49853 8.03329 2.69619 7.83357 2.69619 7.58946Z" fill="black"/>
<path d="M3.61851 11.362L2.67415 12.3162C2.49846 12.4938 2.49846 12.7601 2.67415 12.9376C2.762 13.0264 2.87181 13.0707 2.98162 13.0707C3.09143 13.0707 3.20124 13.0264 3.28908 12.9376L4.23344 11.9834C4.40914 11.8058 4.40914 11.5395 4.23344 11.362C4.05775 11.1845 3.79421 11.2067 3.61851 11.362Z" fill="black"/>
<path d="M12.3603 11.3619C12.1846 11.1844 11.921 11.1844 11.7453 11.3619C11.5697 11.5394 11.5697 11.8057 11.7453 11.9833L12.6897 12.9375C12.7776 13.0263 12.8874 13.0707 12.9972 13.0707C13.107 13.0707 13.2168 13.0263 13.3046 12.9375C13.4803 12.76 13.4803 12.4937 13.3046 12.3161L12.3603 11.3619Z" fill="black"/>
<path d="M15.0608 7.14563H13.7431C13.5015 7.14563 13.3038 7.34535 13.3038 7.58946C13.3038 7.83357 13.5015 8.03329 13.7431 8.03329H15.0608C15.3023 8.03329 15.5 7.83357 15.5 7.58946C15.5 7.34535 15.3023 7.14563 15.0608 7.14563Z" fill="black"/>
<path d="M12.0528 3.92792C12.1626 3.92792 12.2724 3.88354 12.3603 3.79477L13.3046 2.84054C13.4803 2.66301 13.4803 2.39671 13.3046 2.21918C13.1289 2.04165 12.8654 2.04165 12.6897 2.21918L11.7453 3.17341C11.5697 3.35094 11.5697 3.61724 11.7453 3.79477C11.8332 3.88354 11.943 3.92792 12.0528 3.92792Z" fill="black"/>
</svg>
