<svg width="164" height="164" viewBox="0 0 164 164" fill="none" xmlns="http://www.w3.org/2000/svg">
<rect width="164" height="164" fill="white"/>
<circle cx="82" cy="82" r="76.5" fill="white" stroke="#2FB1D3" stroke-width="11"/>
<path d="M103.781 86.4844C103.781 89.6875 104.422 92.25 105.383 92.5703C111.896 92.4635 125.306 92.25 126.844 92.25C128.125 92.25 128.125 87.125 128.125 84.2422C128.125 81.3416 125.242 79.7578 123.641 79.7578C123.641 78.4766 122.034 77.5951 121.399 77.5156C116.274 76.875 112.43 76.875 109.867 77.5156C106.664 77.5156 103.781 82.308 103.781 86.4844Z" fill="#2FB1D3"/>
<path d="M137.094 124.281H95.1328C95.1328 118.195 98.6562 108.906 106.984 105.062C109.547 106.984 112.75 108.906 116.273 108.906C119.797 108.906 123.32 106.664 125.242 105.062C131.328 107.945 137.094 115.633 137.094 124.281Z" fill="#BDE6F1"/>
<path d="M126.203 92.25C126.523 101.219 119.477 104.422 116.273 104.422C106.023 104.102 105.703 95.4531 105.703 89.6875C105.703 85.1917 109.867 82.6406 111.469 82.6406C113.07 82.6406 114.672 84.5625 116.914 84.5625C118.708 84.5625 121.292 83.7083 122.359 83.2813C123.534 83.2813 125.947 85.075 126.203 92.25Z" fill="#BDE6F1"/>
<path d="M68.8672 29.3086C68.8672 32.5117 69.5078 35.0742 70.4688 35.3945C76.9818 35.2878 90.3923 35.0742 91.9298 35.0742C93.2111 35.0742 93.2111 29.9492 93.2111 27.0664C93.2111 24.1658 90.3282 22.582 88.7267 22.582C88.7267 21.3008 87.1202 20.4193 86.4845 20.3398C81.3595 19.6992 77.5157 19.6992 74.9532 20.3398C71.7501 20.3398 68.8672 25.1322 68.8672 29.3086Z" fill="#2FB1D3"/>
<path d="M102.18 67.1054H60.2188C60.2188 61.0195 63.7422 51.7305 72.0703 47.8867C74.6328 49.8086 77.8359 51.7304 81.3594 51.7304C84.8828 51.7304 88.4062 49.4883 90.3281 47.8867C96.4141 50.7695 102.18 58.457 102.18 67.1054Z" fill="#BDE6F1"/>
<path d="M91.2891 35.0742C91.6094 44.043 84.5625 47.2461 81.3594 47.2461C71.1094 46.9258 70.7891 38.2773 70.7891 32.5117C70.7891 28.0159 74.9531 25.4648 76.5547 25.4648C78.1562 25.4648 79.7578 27.3867 82 27.3867C83.7938 27.3867 86.3776 26.5326 87.4453 26.1055C88.6198 26.1055 91.0328 27.8992 91.2891 35.0742Z" fill="#BDE6F1"/>
<path d="M38.7578 28.1875H62.1406V33.3125H43.8828V57.3359L48.0469 53.1719L51.25 56.375L41 66.625L31.0703 56.6953L34.5938 53.1719L38.7578 57.3359V28.1875Z" fill="#2FB1D3"/>
<path d="M123.961 28.1875H100.578V33.3125H118.836V57.3359L114.672 53.1719L111.469 56.375L121.719 66.625L131.648 56.6953L128.125 53.1719L123.961 57.3359V28.1875Z" fill="#2FB1D3"/>
<path d="M93.5938 94.8125C93.5938 101.923 87.8294 107.688 80.7188 107.688C73.6081 107.688 67.8438 101.923 67.8438 94.8125C67.8438 87.7018 73.6081 81.9375 80.7188 81.9375C87.8294 81.9375 93.5938 87.7018 93.5938 94.8125Z" fill="white" stroke="#2FB1D3" stroke-width="5"/>
<path d="M73.0312 94.4922L75.2734 92.25L78.7969 95.7734L85.8438 88.7266L88.4062 91.2891L79.1172 100.578L73.0312 94.4922Z" fill="#E58B1C"/>
<path d="M34.2734 86.4844C34.2734 89.6875 34.9141 92.25 35.875 92.5703C42.3881 92.4635 55.7986 92.25 57.3361 92.25C58.6173 92.25 58.6173 87.125 58.6173 84.2422C58.6173 81.3416 55.7345 79.7578 54.1329 79.7578C54.1329 78.4766 52.5264 77.5951 51.8907 77.5156C46.7657 76.875 42.922 76.875 40.3595 77.5156C37.1564 77.5156 34.2734 82.308 34.2734 86.4844Z" fill="#2FB1D3"/>
<path d="M67.5859 124.281H25.625C25.625 118.195 29.1484 108.906 37.4766 105.062C40.0391 106.984 43.2422 108.906 46.7656 108.906C50.2891 108.906 53.8125 106.664 55.7344 105.062C61.8203 107.945 67.5859 115.633 67.5859 124.281Z" fill="#BDE6F1"/>
<path d="M56.6953 92.25C57.0156 101.219 49.9688 104.422 46.7656 104.422C36.5156 104.102 36.1953 95.4531 36.1953 89.6875C36.1953 85.1917 40.3594 82.6406 41.9609 82.6406C43.5625 82.6406 45.1641 84.5625 47.4062 84.5625C49.2 84.5625 51.7839 83.7083 52.8516 83.2813C54.026 83.2813 56.4391 85.075 56.6953 92.25Z" fill="#BDE6F1"/>
</svg>
