<svg width="16" height="16" viewBox="0 0 16 16" fill="none" xmlns="http://www.w3.org/2000/svg">
<path d="M1.425 7.5C1.425 6.2175 2.4675 5.175 3.75 5.175H6.0375C6.431 5.175 6.75 4.856 6.75 4.4625V4.4625C6.75 4.069 6.431 3.75 6.0375 3.75H3.75C1.68 3.75 0 5.43 0 7.5C0 9.57 1.68 11.25 3.75 11.25H6.0375C6.431 11.25 6.75 10.931 6.75 10.5375V10.5375C6.75 10.144 6.431 9.825 6.0375 9.825H3.75C2.4675 9.825 1.425 8.7825 1.425 7.5ZM4.5 7.5C4.5 7.91421 4.83579 8.25 5.25 8.25H9.75C10.1642 8.25 10.5 7.91421 10.5 7.5V7.5C10.5 7.08579 10.1642 6.75 9.75 6.75H5.25C4.83579 6.75 4.5 7.08579 4.5 7.5V7.5ZM11.25 3.75H8.9625C8.569 3.75 8.25 4.069 8.25 4.4625V4.4625C8.25 4.856 8.569 5.175 8.9625 5.175H11.25C12.5325 5.175 13.575 6.2175 13.575 7.5C13.575 8.7825 12.5325 9.825 11.25 9.825H8.9625C8.569 9.825 8.25 10.144 8.25 10.5375V10.5375C8.25 10.931 8.569 11.25 8.9625 11.25H11.25C13.32 11.25 15 9.57 15 7.5C15 5.43 13.32 3.75 11.25 3.75Z" fill="#707070"/>
</svg>
