<svg xmlns="http://www.w3.org/2000/svg" viewBox="0 0 16 16"><title>link</title><g id="Layer_2" data-name="Layer 2"><g id="Layer_1-2" data-name="Layer 1"><path d="M14.72,7.48,12.65,9.54a3.8,3.8,0,0,1-.37.33,4.25,4.25,0,0,1-1.6.81,4.31,4.31,0,0,1-1.6.12,4.38,4.38,0,0,1-1.44-.41,4.45,4.45,0,0,1-2-2,1.47,1.47,0,0,1,1.88.16,2.86,2.86,0,0,0,1.88.85,2.9,2.9,0,0,0,2.25-.85l2.07-2.06A2.92,2.92,0,1,0,9.55,2.32L8,3.9a6,6,0,0,0-1.84-.19q.15-.18.33-.36L8.51,1.28a4.39,4.39,0,0,1,6.21,6.2Z"/><path d="M9.55,12.64,7.48,14.71a4.38,4.38,0,1,1-6.2-6.2L3.34,6.45a3.8,3.8,0,0,1,.37-.33,4.41,4.41,0,0,1,1.6-.81,4.43,4.43,0,0,1,3,.29,4.31,4.31,0,0,1,1.2.85,4.22,4.22,0,0,1,.84,1.19,1.47,1.47,0,0,1-1.88-.16,2.91,2.91,0,0,0-3.32-.57,2.83,2.83,0,0,0-.81.57L2.31,9.54a2.93,2.93,0,0,0,4.14,4.14L8,12.09a6,6,0,0,0,1.84.19C9.77,12.4,9.66,12.53,9.55,12.64Z"/></g></g></svg>