<svg width="164" height="164" viewBox="0 0 164 164" fill="none" xmlns="http://www.w3.org/2000/svg">
<circle cx="82" cy="82" r="82" fill="#BDE6F1"/>
<rect x="18.9331" y="22.8071" width="126.134" height="139.047" rx="8.5" fill="white" stroke="#2FB1D3" stroke-width="3"/>
<rect x="30.3465" y="34.2205" width="102.661" height="116.866" fill="#BDE6F1"/>
<path d="M78.4488 65.2126H54.2362V88.7795C52.9449 87.1654 49.7165 82.6457 44.2283 82.6457C38.4173 82.6457 34.2205 87.4882 34.2205 92.6536C34.2205 97.4961 38.0945 102.661 44.5512 102.661C49.3937 102.661 52.622 98.7874 54.2362 96.5276V120.095H78.4488C75.8661 122.032 72.315 125.089 72.315 130.425C72.315 135.591 76.8346 140.11 82.3228 140.11C87.811 140.11 92.3307 135.591 92.3307 130.425C92.3307 124.291 87.811 121.386 86.1968 120.095H109.118V96.8504C111.055 98.7874 113.961 102.661 119.126 102.661C123.212 102.661 129.134 99.4331 129.134 92.6536C129.134 86.1969 123.646 82.6457 119.126 82.6457C113.961 82.6457 110.732 86.5197 109.118 88.7795V65.2126H86.1968C89.1024 63.9213 92.3307 60.3701 92.3307 55.8504C92.3307 50.0394 87.4882 45.8425 82.3228 45.8425C76.8346 45.8425 72.315 50.3622 72.315 55.8504C72.315 60.6929 75.2205 63.5984 78.4488 65.2126Z" fill="white" stroke="#2FB1D3" stroke-width="3" stroke-linejoin="round"/>
<rect x="61.0157" y="71.3465" width="5.16536" height="5.16536" fill="#E58B1C"/>
<rect x="98.4646" y="71.3465" width="5.16535" height="5.16536" fill="#E58B1C"/>
<path d="M62.9527 92.3307L71.6693 83.6142L73.6063 85.5512L66.8268 92.3307L73.9291 99.4331L71.6693 101.693L62.9527 92.3307Z" fill="#2FB1D3"/>
<path d="M76.5118 100.724L85.874 82.3228L88.1338 83.6142L79.0945 102.339L76.5118 100.724Z" fill="#2FB1D3"/>
<path d="M90.7165 85.2283L92.9764 82.9685L102.016 92.3307L92.9764 101.693L90.7165 99.4331L97.8189 92.3307L90.7165 85.2283Z" fill="#2FB1D3"/>
<rect x="98.4646" y="108.795" width="5.16535" height="5.16537" fill="#E58B1C"/>
<rect x="61.0157" y="108.795" width="5.16536" height="5.16537" fill="#E58B1C"/>
</svg>
