<svg width="180" height="180" viewBox="0 0 180 180" fill="none" xmlns="http://www.w3.org/2000/svg">
<circle cx="90" cy="90" r="90" fill="#BDE6F1"/>
<rect x="20.6339" y="24.8859" width="138.732" height="152.906" rx="8.5" fill="white" stroke="#2FB1D3" stroke-width="3"/>
<rect x="33.3071" y="37.5591" width="112.677" height="128.268" fill="#BDE6F1"/>
<path d="M59.1733 105.591L59.1733 132.165L85.0394 132.165C83.2678 133.583 78.3072 137.126 78.3072 143.15C78.3072 149.528 83.6221 154.134 89.2914 154.134C94.6064 154.134 100.276 149.882 100.276 142.795C100.276 137.48 96.0237 133.937 93.5434 132.165L119.41 132.165L119.41 105.591C121.535 108.425 124.891 112.323 130.748 112.323C136.417 112.323 141.378 107.362 141.378 101.339C141.378 95.315 136.417 90.3544 130.748 90.3544C124.016 90.3544 120.827 95.315 119.41 97.0867L119.41 71.9292L93.8977 71.9292C96.0237 69.8032 100.276 66.6142 100.276 60.9449C100.276 56.4603 96.7323 49.9607 89.2914 49.9607C82.2048 49.9607 78.3072 55.9843 78.3072 60.9449C78.3072 66.6142 82.5591 70.1575 85.0394 71.9292L59.1733 71.9292L59.1733 97.0867C57.756 93.8977 53.8583 90.3544 48.8977 90.3544C42.5197 90.3544 37.9134 95.6693 37.9134 101.339C37.9135 107.362 42.8741 112.323 48.8977 112.323C54.2127 112.323 57.4016 109.134 59.1733 105.591Z" fill="white" stroke="#2FB1D3" stroke-width="3" stroke-linejoin="round"/>
<path d="M86.0929 111.098C85.9243 110.611 85.7744 109.983 85.6432 109.215C85.512 108.428 85.4464 107.65 85.4464 106.882C85.4464 105.683 85.6807 104.605 86.1491 103.649C86.6364 102.675 87.236 101.766 87.9481 100.923C88.6602 100.08 89.4379 99.2739 90.2811 98.5056C91.1244 97.7185 91.902 96.9315 92.6141 96.1445C93.3262 95.3387 93.9165 94.5048 94.385 93.6428C94.8722 92.7621 95.1158 91.797 95.1158 90.7476C95.1158 89.8481 94.9378 89.0517 94.5817 88.3584C94.2444 87.665 93.776 87.0841 93.1763 86.6156C92.5767 86.1472 91.8833 85.8005 91.0963 85.5756C90.3092 85.332 89.4753 85.2102 88.5946 85.2102C85.4277 85.2102 82.6824 86.4563 80.3588 88.9486V84.0015C83.2258 82.2026 86.196 81.3031 89.2692 81.3031C90.6934 81.3031 92.0332 81.4905 93.2887 81.8653C94.5443 82.2401 95.6405 82.8022 96.5774 83.5518C97.5331 84.2826 98.2827 85.2008 98.8261 86.3064C99.3696 87.412 99.6413 88.6957 99.6413 90.1573C99.6413 91.544 99.3977 92.7808 98.9105 93.8677C98.4232 94.9545 97.8049 95.9571 97.0553 96.8753C96.3245 97.7748 95.5281 98.618 94.6661 99.4051C93.8041 100.192 92.9983 100.979 92.2487 101.766C91.5179 102.534 90.9089 103.34 90.4217 104.184C89.9344 105.027 89.6908 105.954 89.6908 106.966C89.6908 107.828 89.7939 108.615 90 109.327C90.2062 110.021 90.4123 110.611 90.6184 111.098H86.0929ZM88.6227 122.791C87.7982 122.791 87.0674 122.492 86.4302 121.892C85.8118 121.292 85.5026 120.561 85.5026 119.699C85.5026 118.819 85.8118 118.088 86.4302 117.507C87.0486 116.889 87.7794 116.579 88.6227 116.579C89.466 116.579 90.1968 116.889 90.8152 117.507C91.4336 118.088 91.7428 118.819 91.7428 119.699C91.7428 120.561 91.4336 121.292 90.8152 121.892C90.178 122.492 89.4472 122.791 88.6227 122.791Z" fill="#2FB1D3"/>
<rect x="66.6143" y="77.9528" width="5.6693" height="5.6693" fill="#E58B1C"/>
<rect x="107.717" y="77.9528" width="5.66929" height="5.6693" fill="#E58B1C"/>
<rect x="107.717" y="119.055" width="5.66929" height="5.66931" fill="#E58B1C"/>
<rect x="66.6143" y="119.055" width="5.6693" height="5.66931" fill="#E58B1C"/>
</svg>
