<svg width="16" height="16" viewBox="0 0 16 16" fill="none" xmlns="http://www.w3.org/2000/svg">
<path d="M14.08 2.8159C11.6 0.3947 7.28 0.3947 4.8 2.8159L2 5.54951V3.11855H0V8.97629H6V7.02371H3.49L6.215 4.26081C7.935 2.57671 10.94 2.54742 12.665 4.23152C13.525 5.07113 14 6.17434 14 7.40446C14 8.55649 13.525 9.66457 12.665 10.5091L11.155 11.9784L12.57 13.355L14.08 11.8856C15.32 10.6702 16 9.06416 16 7.38982C16 5.63738 15.315 4.0265 14.08 2.8159Z" fill="#4C4C4C"/>
<path d="M10.475 15C11.0273 15 11.475 14.5629 11.475 14.0237C11.475 13.4845 11.0273 13.0474 10.475 13.0474C9.92269 13.0474 9.47498 13.4845 9.47498 14.0237C9.47498 14.5629 9.92269 15 10.475 15Z" fill="#4C4C4C"/>
</svg>
