<svg xmlns="http://www.w3.org/2000/svg" viewBox="0 0 16 16">
    <path d="M4.22,12.22,1.76,14.68a.31.31,0,0,1-.22.09.33.33,0,0,1-.22-.09.31.31,0,0,1,0-.44l2.46-2.46a.31.31,0,0,1,.44.44Zm1.63.4v3.07a.28.28,0,0,1-.09.22.31.31,0,0,1-.44,0,.28.28,0,0,1-.09-.22V12.62a.32.32,0,0,1,.09-.23.34.34,0,0,1,.44,0A.32.32,0,0,1,5.85,12.62ZM3.69,10.46a.31.31,0,0,1-.08.22.32.32,0,0,1-.23.09H.31a.28.28,0,0,1-.22-.09A.28.28,0,0,1,0,10.46a.29.29,0,0,1,.09-.22.28.28,0,0,1,.22-.09H3.38a.32.32,0,0,1,.23.09A.33.33,0,0,1,3.69,10.46Zm12.16,1.23a2.64,2.64,0,0,1-.82,2l-1.41,1.41a2.69,2.69,0,0,1-2,.8,2.66,2.66,0,0,1-2-.82L6.49,11.81a3.15,3.15,0,0,1-.4-.54l2.29-.17L11,13.73a.94.94,0,0,0,.65.27.91.91,0,0,0,.66-.26l1.41-1.4a.92.92,0,0,0,0-1.3L11.1,8.39l.17-2.29a3.15,3.15,0,0,1,.54.4L15,9.73A2.71,2.71,0,0,1,15.85,11.69Zm-5.94-7L7.62,4.9,5,2.27A.89.89,0,0,0,4.34,2a1,1,0,0,0-.66.26L2.27,3.66a.92.92,0,0,0,0,1.3L4.9,7.6,4.73,9.9a3.15,3.15,0,0,1-.54-.4L1,6.27a2.71,2.71,0,0,1-.81-2A2.64,2.64,0,0,1,1,2.36L2.38,1a2.69,2.69,0,0,1,2-.8A2.66,2.66,0,0,1,6.3,1L9.51,4.19A3.15,3.15,0,0,1,9.91,4.73ZM16,5.54a.29.29,0,0,1-.09.22.28.28,0,0,1-.22.09H12.62a.32.32,0,0,1-.23-.09.34.34,0,0,1,0-.44.32.32,0,0,1,.23-.09h3.07a.28.28,0,0,1,.22.09A.29.29,0,0,1,16,5.54ZM10.77.31V3.38a.32.32,0,0,1-.09.23.31.31,0,0,1-.22.08.33.33,0,0,1-.22-.08.32.32,0,0,1-.09-.23V.31a.28.28,0,0,1,.09-.22A.29.29,0,0,1,10.46,0a.28.28,0,0,1,.22.09A.28.28,0,0,1,10.77.31Zm3.91,1.45L12.22,4.22a.31.31,0,0,1-.44,0,.31.31,0,0,1,0-.44l2.46-2.46a.31.31,0,0,1,.44.44Z"/>
</svg>
