<svg width="16" height="16" viewBox="0 0 16 16" fill="none" xmlns="http://www.w3.org/2000/svg">
<path d="M7.99895 8.49414C4.54749 8.49414 1.68808 10.7073 1.48438 13.486H14.5135C14.3091 10.7073 11.4504 8.49414 7.99895 8.49414Z" fill="#6E6E6E"/>
<path d="M9.80783 8.16998C9.80783 8.16998 8.08687 7.78753 6.19149 8.16998C3.19719 8.81942 1 11.0531 1 13.683C1 13.8573 1.17509 14 1.38902 14H14.611C14.8249 14 15 13.8573 15 13.683C14.9993 11.0531 12.8021 8.81998 9.80783 8.16998ZM1.79712 13.3661C1.99129 10.7206 4.71376 8.61349 7.99966 8.61349C11.2856 8.61349 14.008 10.7206 14.2022 13.3661H1.79712Z" fill="#6E6E6E"/>
<path d="M8 7C9.65685 7 11 5.65685 11 4C11 2.34315 9.65685 1 8 1C6.34315 1 5 2.34315 5 4C5 5.65685 6.34315 7 8 7Z" fill="#6E6E6E"/>
</svg>
