<svg width="32" height="31" viewBox="0 0 32 31" fill="none" xmlns="http://www.w3.org/2000/svg">
<path d="M15.9468 25.1112C15.3573 25.1044 14.7749 24.9797 14.233 24.7442L4.45044 20.427L0.34156 22.2834C0.239645 22.3308 0.153282 22.4068 0.0927342 22.5025C0.0321865 22.5981 0 22.7094 0 22.8231C0 22.9367 0.0321865 23.048 0.0927342 23.1437C0.153282 23.2393 0.239645 23.3154 0.34156 23.3627L15.2442 29.8385C15.4824 29.945 15.7398 30 16 30C16.2602 30 16.5176 29.945 16.7558 29.8385L31.6584 23.3627C31.7604 23.3154 31.8467 23.2393 31.9073 23.1437C31.9678 23.048 32 22.9367 32 22.8231C32 22.7094 31.9678 22.5981 31.9073 22.5025C31.8467 22.4068 31.7604 22.3308 31.6584 22.2834L27.4431 20.4918L17.6606 24.809C17.1143 25.0222 16.532 25.1249 15.9468 25.1112V25.1112Z" fill="white"/>
<path d="M15.9469 17.772C15.3575 17.7748 14.7739 17.6535 14.2331 17.4158L4.45055 13.1633L0.341671 14.9442C0.243144 14.9946 0.160346 15.0717 0.102496 15.167C0.0446458 15.2623 0.0140152 15.372 0.0140152 15.4838C0.0140152 15.5957 0.0446458 15.7054 0.102496 15.8007C0.160346 15.896 0.243144 15.9731 0.341671 16.0235L15.2443 22.4993C15.4825 22.6058 15.7399 22.6608 16.0001 22.6608C16.2604 22.6608 16.5178 22.6058 16.7559 22.4993L31.6586 16.0235C31.7571 15.9731 31.8399 15.896 31.8977 15.8007C31.9556 15.7054 31.9862 15.5957 31.9862 15.4838C31.9862 15.372 31.9556 15.2623 31.8977 15.167C31.8399 15.0717 31.7571 14.9946 31.6586 14.9442L27.4432 13.1633L17.6607 17.4158C17.1199 17.6535 16.5363 17.7748 15.9469 17.772V17.772Z" fill="#477378"/>
<path d="M31.5521 7.60488L16.7027 1.16143C16.4645 1.05498 16.2071 1 15.9469 1C15.6866 1 15.4292 1.05498 15.1911 1.16143L0.341671 7.60488C0.243144 7.65527 0.160346 7.7324 0.102496 7.82768C0.0446458 7.92296 0.0140152 8.03265 0.0140152 8.14454C0.0140152 8.25642 0.0446458 8.36611 0.102496 8.46139C0.160346 8.55667 0.243144 8.6338 0.341671 8.68419L15.2443 15.16C15.4837 15.2615 15.7406 15.3138 16.0001 15.3138C16.2596 15.3138 16.5165 15.2615 16.7559 15.16L31.6585 8.68419C31.7531 8.62451 31.8293 8.53918 31.8784 8.43786C31.9276 8.33655 31.9477 8.22329 31.9367 8.11094C31.9256 7.99859 31.8837 7.89163 31.8157 7.80219C31.7477 7.71274 31.6564 7.64439 31.5521 7.60488V7.60488Z" fill="#C2DCD3"/>
</svg>
