<svg width="23" height="23" viewBox="0 0 23 23" fill="none" xmlns="http://www.w3.org/2000/svg">
<path d="M16.4286 0L11.5 4.92857L9.85718 6.57143L14.7857 11.5L16.4286 13.1429L18.0715 11.5L23 6.57143L16.4286 0ZM16.4286 9.70929L13.2907 6.57143L16.4286 3.43357L19.5665 6.57143L16.4286 9.70929Z" fill="#2FB1D3"/>
<path d="M16.4286 9.85712L14.7857 11.5L9.85718 16.4285L16.4286 23L23 16.4285L16.4286 9.85712ZM16.4286 19.5664L13.2907 16.4285L16.4286 13.2907L19.5665 16.4285L16.4286 19.5664Z" fill="#C2DCD3"/>
<path d="M6.57143 9.85712L4.92857 11.5L0 16.4285L6.57143 23L13.1429 16.4285L6.57143 9.85712ZM6.57143 19.5664L3.43357 16.4285L6.57143 13.2907L9.70929 16.4285L6.57143 19.5664Z" fill="#477378"/>
<path d="M6.57143 0L0 6.57143L4.92857 11.5L6.57143 13.1429L8.21429 11.5L13.1429 6.57143L6.57143 0ZM6.57143 9.70929L3.43357 6.57143L6.57143 3.43357L9.70929 6.57143L6.57143 9.70929Z" fill="#EC8C2D"/>
<path d="M12.3215 5.75002V4.92859H11.5L9.85718 6.57145L11.5 8.2143H12.3215V7.39287H13.1429V5.75002H12.3215Z" fill="#2FB1D3"/>
</svg>
