<svg width="23" height="21" viewBox="0 0 23 21" fill="none" xmlns="http://www.w3.org/2000/svg">
<path d="M11.4617 17.4252C11.038 17.4202 10.6194 17.329 10.2299 17.1569L3.19875 14L0.245496 15.3575C0.172245 15.3921 0.110171 15.4477 0.0666527 15.5176C0.023134 15.5876 0 15.6689 0 15.7521C0 15.8352 0.023134 15.9165 0.0666527 15.9865C0.110171 16.0564 0.172245 16.112 0.245496 16.1467L10.9568 20.882C11.1279 20.9598 11.3129 21 11.5 21C11.6871 21 11.8721 20.9598 12.0432 20.882L22.7545 16.1467C22.8278 16.112 22.8898 16.0564 22.9333 15.9865C22.9769 15.9165 23 15.8352 23 15.7521C23 15.6689 22.9769 15.5876 22.9333 15.5176C22.8898 15.4477 22.8278 15.3921 22.7545 15.3575L19.7247 14.0474L12.6935 17.2042C12.3009 17.3602 11.8824 17.4352 11.4617 17.4252Z" fill="#2FB1D3"/>
<path d="M11.4617 11.882C11.0377 11.8844 10.6179 11.7822 10.2288 11.582L3.19153 8L0.235707 9.50007C0.16483 9.54252 0.105267 9.60748 0.0636507 9.68774C0.0220349 9.768 0 9.8604 0 9.95464C0 10.0489 0.0220349 10.1413 0.0636507 10.2215C0.105267 10.3018 0.16483 10.3668 0.235707 10.4092L10.9563 15.864C11.1276 15.9537 11.3128 16 11.5 16C11.6872 16 11.8724 15.9537 12.0437 15.864L22.7643 10.4092C22.8352 10.3668 22.8947 10.3018 22.9363 10.2215C22.978 10.1413 23 10.0489 23 9.95464C23 9.8604 22.978 9.768 22.9363 9.68774C22.8947 9.60748 22.8352 9.54252 22.7643 9.50007L19.7319 8L12.6946 11.582C12.3055 11.7822 11.8857 11.8844 11.4617 11.882Z" fill="#477378"/>
<path d="M22.7208 4.61434L12.0229 0.112777C11.8514 0.0384083 11.6659 0 11.4784 0C11.2909 0 11.1055 0.0384083 10.934 0.112777L0.236051 4.61434C0.16507 4.64954 0.10542 4.70342 0.0637436 4.76999C0.022067 4.83655 0 4.91319 0 4.99135C0 5.06952 0.022067 5.14615 0.0637436 5.21272C0.10542 5.27928 0.16507 5.33317 0.236051 5.36837L10.9723 9.89255C11.1448 9.96348 11.3298 10 11.5168 10C11.7037 10 11.8888 9.96348 12.0613 9.89255L22.7975 5.36837C22.8656 5.32668 22.9205 5.26706 22.9559 5.19628C22.9913 5.1255 23.0059 5.04637 22.9979 4.96788C22.9899 4.88939 22.9597 4.81467 22.9107 4.75218C22.8618 4.68969 22.796 4.64194 22.7208 4.61434Z" fill="#C2DCD3"/>
</svg>
