<?xml version="1.0" encoding="utf-8"?>
<!-- Generator: Adobe Illustrator 20.1.0, SVG Export Plug-In . SVG Version: 6.00 Build 0)  -->
<svg version="1.1" xmlns="http://www.w3.org/2000/svg" xmlns:xlink="http://www.w3.org/1999/xlink" x="0px" y="0px"
	 viewBox="0 0 32 32" enable-background="new 0 0 32 32" xml:space="preserve">
<g id="Layer_2">
</g>
<g id="Layer_1">
	<path fill="#C2DCD3" d="M24,15H8c-2.21,0-4,1.74-4,4.5v1.25V27c0,1.38,0.9,3,2,3h20c1.1,0,2-1.62,2-3v-6.25V19.5
		C28,16.74,26.21,15,24,15z"/>
	<polygon fill="#477378" points="9,15 16,29 23,15 	"/>
	<path fill="#FFFFFF" d="M23,9c0-3.87-3.13-7-7-7S9,5.13,9,9c0,1.91,0.76,3.63,2,4.89V15c0,2.76,2.24,5,5,5s5-2.24,5-5v-1.11
		C22.24,12.63,23,10.91,23,9z"/>
	<path fill="#E58B1C" d="M13,7c3,1,3,1,6-1c2-2,4,4,4,4c1-8-2.58-9-7-9s-9,0-7,9C11,5,13,7,13,7z"/>
</g>
</svg>
