<?xml version="1.0" encoding="utf-8"?>
<!-- Generator: Adobe Illustrator 19.2.1, SVG Export Plug-In . SVG Version: 6.00 Build 0)  -->
<svg version="1.1" id="warning" xmlns="http://www.w3.org/2000/svg" xmlns:xlink="http://www.w3.org/1999/xlink" x="0px" y="0px"
	 viewBox="0 0 32 32" style="enable-background:new 0 0 32 32;" xml:space="preserve">
<style type="text/css">
	.st0{display:none;}
	.st1{display:inline;}
</style>
<g class="st0">
	<path class="st1" d="M28.3,28.7H3.7c-0.8,0-1.6-0.4-2-1.1s-0.4-1.5,0.1-2.2L14.1,4.1c0.4-0.7,1.1-1.2,1.9-1.2s1.5,0.5,1.9,1.3
		l12.3,21.2c0.6,1.1,0.3,1.9,0,2.3C30,28.1,29.5,28.7,28.3,28.7z M4.4,26.9L4.4,26.9L4.4,26.9z M5.1,25.7h21.8L16,6.9L5.1,25.7z
		 M15.3,5.6C15.3,5.7,15.3,5.7,15.3,5.6L15.3,5.6z M16.7,5.6L16.7,5.6L16.7,5.6z"/>
</g>
<path d="M26.5,28H5.5c-1,0-1.8-0.5-2.3-1.3S2.8,25,3.2,24.1L13.8,5.9c0.5-0.8,1.3-1.4,2.2-1.4c0,0,0,0,0,0c0.9,0,1.7,0.5,2.2,1.4
	l10.5,18.2c0.5,0.8,0.5,1.8,0.1,2.6S27.5,28,26.5,28z M25.3,26.1C25.3,26.1,25.3,26.1,25.3,26.1L25.3,26.1z M6.7,26.1L6.7,26.1
	C6.7,26.1,6.7,26.1,6.7,26.1z M7.9,24h16.1L16,10L7.9,24z"/>
</svg>
