<svg width="28" height="28" fill="none" xmlns="http://www.w3.org/2000/svg"><path d="M6.65.35H.35v6.3h6.3V.35z" fill="#E3E3E3"/><path d="M6.3.7v5.6H.7V.7h5.6zM7 0H0v7h7V0z" fill="#C4C4C4"/><path d="M6.65 10.85H.35v6.3h6.3v-6.3z" fill="#E3E3E3"/><path d="M6.3 11.2v5.6H.7v-5.6h5.6zm.7-.7H0v7h7v-7z" fill="#C4C4C4"/><path d="M6.65 21.35H.35v6.3h6.3v-6.3z" fill="#E3E3E3"/><path d="M6.3 21.7v5.6H.7v-5.6h5.6zM7 21H0v7h7v-7z" fill="#C4C4C4"/><path d="M4.167 16.334l-3-3.194 1.4-1.49 1.6 1.691 3.765-4.007 1.401 1.49-5.166 5.51z" fill="#AAA"/><path fill="#C4C4C4" d="M10.5 2.333H28v2.333H10.5zM10.5 12.834H28v2.333H10.5zM10.5 23.334H28v2.333H10.5z"/></svg>