<svg width="15" height="15" fill="none" xmlns="http://www.w3.org/2000/svg"><path d="M14.65 9.51l-1.384-.977v-.055c0-.108 0-.163.057-.271v-.272-.272-.326-.217-.109c0-.054 0-.109-.057-.218l1.383-.978c.346-.163.462-.598.231-.87l-1.153-1.902c-.173-.326-.634-.434-.923-.217l-1.614.652-.058-.054-.057-.054s-.058 0-.058-.055c0 0-.058 0-.058-.054l-.057-.054c-.058 0-.058-.055-.116-.055-.057-.054-.115-.054-.173-.109h-.057l-.346-.163c-.173-.054-.288-.163-.461-.217H9.69L9.518.978C9.345.38 9.057 0 8.653 0H6.347c-.404 0-.692.38-.692.707L5.482 2.39v.055h-.058c-.057 0-.115.054-.173.054h-.057c-.058 0-.116.054-.173.054 0 0-.058 0-.058.055-.058 0-.115.054-.115.054-.058 0-.058.054-.116.054 0 0-.057 0-.057.055a.448.448 0 0 1-.23.108c-.058.055-.116.055-.174.11-.288.217-.346.27-.403.27H3.81s-.058 0-.058.055l-1.556-.652c-.346-.163-.75-.054-.923.272L.12 4.837a.644.644 0 0 0 .23.87l1.384.978v.108c0 .055 0 .164-.057.218v1.087c.057.163.057.217.057.326v.054l-1.383.979c-.346.163-.462.597-.231.87l1.153 1.901c.173.326.634.435.923.218l1.614-.652h.058s.057 0 .057.054l.058.054s.058 0 .058.055l.057.054h.058l.058.054h.057c.116.055.173.109.289.163h.057l.346.163c.173.109.346.163.577.218l.173 1.684c0 .38.288.707.692.707H8.71c.403 0 .692-.38.692-.707l.173-1.684.057-.055c.058 0 .116-.054.173-.054h.058c.058 0 .115-.054.173-.054 0 0 .057 0 .057-.055.058 0 .116-.054.116-.054.057 0 .057-.054.115-.054 0 0 .058 0 .058-.055a.448.448 0 0 1 .23-.108h.058c.058-.055.115-.11.173-.11a.792.792 0 0 1 .23-.162s.058 0 .058-.055l1.615.653c.346.163.75.054.922-.218l1.153-1.902c.289-.217.173-.652-.173-.815zm-7.15.273c-1.268 0-2.306-.979-2.306-2.174 0-1.196 1.038-2.174 2.306-2.174s2.306.978 2.306 2.174c0 1.195-1.038 2.174-2.306 2.174z" fill="#6E6E6E"/></svg>