<svg xmlns="http://www.w3.org/2000/svg" viewBox="0 0 32 32"><path d="M26.71 10.69c2.36 0 4.28 1.9 4.28 4.25s-1.92 4.25-4.28 4.25c-2.37 0-4.28-1.9-4.28-4.25 0-2.34 1.92-4.25 4.28-4.25zM5.4 2.13c2.36 0 4.28 1.91 4.28 4.27s-1.92 4.27-4.28 4.27c-2.36 0-4.28-1.91-4.28-4.27S3.04 2.13 5.4 2.13zM1.12 29.87h8.53V32H1.12v-2.13zM1.12 25.6h8.53v2.13H1.12V25.6zM1.12 21.33h8.53v2.13H1.12v-2.13zM1.12 17.07h8.53v2.13H1.12v-2.13zM1.12 12.8h8.53v2.13H1.12V12.8zM11.79 0h8.53v2.13h-8.53V0zM11.79 4.27h8.53V6.4h-8.53V4.27zM11.79 8.53h8.53v2.13h-8.53V8.53zM11.79 12.8h8.53v2.13h-8.53V12.8zM11.79 17.07h8.53v2.13h-8.53v-2.13zM11.79 21.33h8.53v2.13h-8.53v-2.13zM11.79 25.6h8.53v2.13h-8.53V25.6zM11.79 29.87h8.53V32h-8.53v-2.13zM22.46 21.33h8.53v2.13h-8.53v-2.13zM22.46 25.6h8.53v2.13h-8.53V25.6zM22.46 29.87h8.53V32h-8.53v-2.13z" fill-rule="evenodd" clip-rule="evenodd" fill="#6e6e6e"/></svg>