<svg width="16" height="16" xmlns="http://www.w3.org/2000/svg"><path d="M2.462 12.454H0v1.273h2.462v-1.273zm4.307-1.272H4.308a.63.63 0 0 0-.616.636v2.546a.63.63 0 0 0 .616.636h2.461a.63.63 0 0 0 .616-.636v-2.546a.63.63 0 0 0-.616-.636zm.616-3.818H0v1.272h7.385V7.364zM2.462 2.273H0v1.272h2.462V2.273zM16 12.454H8.615v1.273H16v-1.273zM6.77 1H4.307a.63.63 0 0 0-.616.636v2.546a.63.63 0 0 0 .616.636h2.461a.63.63 0 0 0 .616-.636V1.636A.63.63 0 0 0 6.769 1zm4.922 5.09H9.231a.63.63 0 0 0-.616.637v2.546a.63.63 0 0 0 .616.636h2.461a.63.63 0 0 0 .616-.636V6.727a.63.63 0 0 0-.616-.636zM16 7.365h-2.461v1.272H16V7.364zm0-5.091H8.615v1.272H16V2.273z"/></svg>