<svg xmlns="http://www.w3.org/2000/svg" viewBox="0 0 32 32"><path fill="#C2DCD3" d="M13.67 23.28l.36.44-.54 6.53s-3.72-2.38-7 1l2.22-9.64h.06l.85-.06.25.81c.07.22.16.42.29.61.5.74 1.38 1.08 2.26.87.17-.04.33-.1.49-.18l.76-.38zm8.48-1.58l-.27.81c-.05.17-.13.33-.22.48a2.1 2.1 0 0 1-2.21.98c-.22-.04-.43-.12-.64-.23l-.75-.4-.12.13.56 6.78s3.72-2.38 7 1l-2.19-9.48c-.11.01-.22.03-.33.02l-.83-.09z"/><path fill="#477378" d="M27.28 11.71c-.06-.08-.12-.15-.2-.22l-.64-.56c-.34-.28-.44-.83-.23-1.22l.4-.75c.06-.12.1-.24.13-.36.09-.47-.11-.92-.52-1.17-.08-.05-.17-.09-.27-.12l-.81-.27c-.42-.13-.72-.6-.68-1.04l.08-.85a1.2 1.2 0 0 0-.02-.38c-.09-.46-.45-.81-.93-.88-.09-.01-.19-.02-.3-.01l-.85.06c-.44.03-.9-.29-1.03-.71l-.25-.81c-.04-.13-.09-.24-.16-.34-.26-.39-.72-.57-1.19-.46-.09.02-.19.06-.28.1l-.76.38c-.39.2-.94.08-1.22-.26l-.54-.66c-.08-.1-.18-.19-.28-.25-.39-.26-.89-.25-1.28.03-.08.06-.15.12-.22.2l-.56.64c-.29.33-.84.44-1.23.23l-.75-.4c-.12-.06-.24-.1-.36-.13-.46-.09-.92.11-1.17.52-.05.08-.09.17-.12.27l-.24.82c-.14.42-.61.72-1.05.68l-.85-.08c-.13-.01-.26 0-.37.02-.47.09-.81.45-.88.93-.01.09-.02.19-.01.3l.06.84c.03.44-.29.9-.71 1.03l-.81.25c-.13.03-.25.09-.35.16-.39.26-.57.72-.45 1.19.02.09.06.19.1.28l.38.76c.2.39.08.94-.26 1.22l-.66.54c-.1.08-.19.18-.25.28-.26.39-.25.89.03 1.28.06.08.12.15.2.22l.64.56c.34.28.44.83.23 1.22l-.4.75c-.06.12-.1.24-.13.36-.09.47.11.92.52 1.17.08.05.17.09.27.12l.81.27c.42.14.72.61.68 1.05l-.08.85c-.01.13-.01.26.02.38.09.46.45.81.93.88.09.01.19.02.3.01l.85-.06c.44-.03.9.29 1.03.71l.25.81c.04.13.09.24.16.34.26.39.72.57 1.19.46.09-.02.19-.06.28-.1l.76-.38c.39-.2.94-.08 1.22.26l.54.66c.08.1.18.19.28.25.06.04.13.07.19.1.35.15.76.11 1.09-.14.08-.06.15-.12.22-.2l.56-.64c.29-.33.84-.44 1.23-.23l.75.4c.12.06.24.1.36.13.47.09.92-.11 1.17-.52.05-.08.09-.17.12-.27l.27-.81c.14-.42.61-.72 1.05-.68l.85.08c.13.01.26.01.38-.02.46-.09.81-.45.88-.93.01-.09.02-.19.01-.3l-.1-.85c-.03-.44.29-.9.71-1.03l.81-.25c.13-.04.24-.09.34-.16.39-.26.57-.72.46-1.19-.02-.09-.06-.19-.1-.28l-.38-.76c-.2-.39-.08-.94.26-1.22l.66-.54c.1-.08.19-.18.25-.28.26-.39.25-.89-.03-1.28zM16 19.5c-4.14 0-7.5-3.36-7.5-7.5s3.36-7.5 7.5-7.5 7.5 3.36 7.5 7.5-3.36 7.5-7.5 7.5z"/><circle fill="#FFF" cx="16" cy="12" r="6.5"/><path fill="#E58B1C" d="M16 8.2l1.24 2.5 2.76.4-2 1.95.47 2.75L16 14.5l-2.47 1.3.47-2.75-2-1.95 2.76-.4z"/></svg>