<svg width="16" height="16" fill="none" xmlns="http://www.w3.org/2000/svg"><path d="M12.337 7.59a4.378 4.378 0 0 0-1.45-3.263A4.384 4.384 0 0 0 7.507 3.24c-1.999.222-3.624 1.864-3.822 3.883a4.477 4.477 0 0 0 1.296 3.64c.351.355.615.754.769 1.198a.432.432 0 0 0-.308.422c0 .244.198.444.44.444v.51c-.242 0-.44.2-.44.444s.198.444.44.444v.177c0 .932.878 1.598 2.13 1.598 1.252 0 2.13-.644 2.13-1.598v-.177c.242 0 .44-.2.44-.444a.443.443 0 0 0-.44-.444v-.51c.242 0 .44-.2.44-.444 0-.2-.132-.378-.308-.422.154-.444.417-.843.769-1.198a4.584 4.584 0 0 0 1.295-3.174zm-3.096 5.214v.51H6.737v-.51h2.504zM7.989 15.09c-.505 0-1.252-.178-1.252-.71v-.178h2.504v.178c0 .532-.747.71-1.252.71zm1.34-3.173h-2.68a3.975 3.975 0 0 0-1.076-1.82A3.485 3.485 0 0 1 4.541 7.19c.176-1.62 1.45-2.93 3.053-3.107.131-.022.263-.022.395-.022.856 0 1.669.31 2.306.888a3.582 3.582 0 0 1 1.164 2.618 3.46 3.46 0 0 1-1.076 2.53 3.93 3.93 0 0 0-1.054 1.82zM7.99 2.22c.241 0 .44-.2.44-.445V.444A.443.443 0 0 0 7.99 0c-.242 0-.44.2-.44.444v1.331c0 .244.198.444.44.444zM3.618 3.795a.431.431 0 0 0 .308.133c.11 0 .22-.044.307-.133a.432.432 0 0 0 0-.622l-.922-.954a.422.422 0 0 0-.615 0 .432.432 0 0 0 0 .622l.922.954zM2.696 7.59a.443.443 0 0 0-.44-.444H.94a.443.443 0 1 0 0 .888h1.318c.242 0 .44-.2.44-.445zM3.619 11.362l-.945.954a.432.432 0 0 0 0 .622.431.431 0 0 0 .308.133c.11 0 .22-.045.307-.133l.944-.955a.432.432 0 0 0 0-.621c-.175-.178-.439-.155-.614 0zM12.36 11.362a.422.422 0 0 0-.615 0 .432.432 0 0 0 0 .621l.945.954a.432.432 0 0 0 .307.134c.11 0 .22-.045.308-.133a.432.432 0 0 0 0-.622l-.945-.954zM15.06 7.146h-1.317a.443.443 0 1 0 0 .888h1.318c.241 0 .439-.2.439-.445a.443.443 0 0 0-.44-.443zM12.053 3.928c.11 0 .22-.044.307-.133l.945-.954a.432.432 0 0 0 0-.622.422.422 0 0 0-.615 0l-.945.954a.432.432 0 0 0 0 .622.432.432 0 0 0 .308.133z" fill="#000"/></svg>