<svg width="164" height="164" fill="none" xmlns="http://www.w3.org/2000/svg"><path fill="#fff" d="M0 0h164v164H0z"/><circle cx="82" cy="82" r="76.5" fill="#fff" stroke="#2FB1D3" stroke-width="11"/><path d="M103.781 86.484c0 3.204.641 5.766 1.602 6.086 6.513-.106 19.923-.32 21.461-.32 1.281 0 1.281-5.125 1.281-8.008 0-2.9-2.883-4.484-4.484-4.484 0-1.281-1.607-2.163-2.242-2.242-5.125-.641-8.969-.641-11.532 0-3.203 0-6.086 4.792-6.086 8.968z" fill="#2FB1D3"/><path d="M137.094 124.281H95.133c0-6.086 3.523-15.375 11.851-19.219 2.563 1.922 5.766 3.844 9.289 3.844 3.524 0 7.047-2.242 8.969-3.844 6.086 2.883 11.852 10.571 11.852 19.219zM126.203 92.25c.32 8.969-6.726 12.172-9.93 12.172-10.25-.32-10.57-8.969-10.57-14.734 0-4.496 4.164-7.047 5.766-7.047 1.601 0 3.203 1.921 5.445 1.921 1.794 0 4.378-.854 5.445-1.28 1.175 0 3.588 1.793 3.844 8.968z" fill="#BDE6F1"/><path d="M68.867 29.309c0 3.203.64 5.765 1.602 6.085 6.513-.106 19.923-.32 21.46-.32 1.282 0 1.282-5.125 1.282-8.008 0-2.9-2.883-4.484-4.484-4.484 0-1.281-1.607-2.163-2.243-2.242-5.124-.64-8.968-.64-11.53 0-3.204 0-6.087 4.792-6.087 8.969z" fill="#2FB1D3"/><path d="M102.18 67.105H60.219c0-6.086 3.523-15.375 11.851-19.218 2.563 1.922 5.766 3.843 9.29 3.843 3.523 0 7.046-2.242 8.968-3.843 6.086 2.883 11.852 10.57 11.852 19.218zM91.29 35.074c.32 8.969-6.728 12.172-9.93 12.172-10.25-.32-10.57-8.969-10.57-14.734 0-4.496 4.163-7.047 5.765-7.047 1.601 0 3.203 1.922 5.445 1.922 1.794 0 4.378-.854 5.445-1.282 1.175 0 3.588 1.794 3.844 8.97z" fill="#BDE6F1"/><path d="M38.758 28.188H62.14v5.125H43.883v24.023l4.164-4.164 3.203 3.203L41 66.625l-9.93-9.93 3.524-3.523 4.164 4.164V28.188zM123.961 28.188h-23.383v5.125h18.258v24.023l-4.164-4.164-3.203 3.203 10.25 10.25 9.929-9.93-3.523-3.523-4.164 4.164V28.188z" fill="#2FB1D3"/><path d="M93.594 94.813c0 7.11-5.765 12.875-12.875 12.875s-12.875-5.765-12.875-12.876c0-7.11 5.764-12.874 12.875-12.874 7.11 0 12.875 5.764 12.875 12.874z" fill="#fff" stroke="#2FB1D3" stroke-width="5"/><path d="M73.031 94.492l2.242-2.242 3.524 3.523 7.047-7.046 2.562 2.562-9.289 9.289-6.086-6.086z" fill="#E58B1C"/><path d="M34.273 86.484c0 3.204.641 5.766 1.602 6.086 6.513-.106 19.924-.32 21.461-.32 1.281 0 1.281-5.125 1.281-8.008 0-2.9-2.883-4.484-4.484-4.484 0-1.281-1.607-2.163-2.242-2.242-5.125-.641-8.969-.641-11.532 0-3.203 0-6.086 4.792-6.086 8.968z" fill="#2FB1D3"/><path d="M67.586 124.281H25.625c0-6.086 3.523-15.375 11.852-19.219 2.562 1.922 5.765 3.844 9.289 3.844 3.523 0 7.047-2.242 8.968-3.844 6.086 2.883 11.852 10.571 11.852 19.219zM56.695 92.25c.32 8.969-6.726 12.172-9.93 12.172-10.25-.32-10.57-8.969-10.57-14.734 0-4.496 4.164-7.047 5.766-7.047 1.602 0 3.203 1.921 5.445 1.921 1.794 0 4.378-.854 5.446-1.28 1.174 0 3.587 1.793 3.843 8.968z" fill="#BDE6F1"/></svg>