<svg width="16" height="16" fill="none" xmlns="http://www.w3.org/2000/svg"><path d="M1.425 7.5A2.327 2.327 0 0 1 3.75 5.175h2.287a.713.713 0 0 0 0-1.425H3.75C1.68 3.75 0 5.43 0 7.5c0 2.07 1.68 3.75 3.75 3.75h2.287a.713.713 0 0 0 0-1.425H3.75A2.327 2.327 0 0 1 1.425 7.5zm3.075 0c0 .414.336.75.75.75h4.5a.75.75 0 0 0 0-1.5h-4.5a.75.75 0 0 0-.75.75zm6.75-3.75H8.963a.713.713 0 0 0 0 1.425h2.287A2.327 2.327 0 0 1 13.575 7.5a2.327 2.327 0 0 1-2.325 2.325H8.963a.713.713 0 0 0 0 1.425h2.287c2.07 0 3.75-1.68 3.75-3.75 0-2.07-1.68-3.75-3.75-3.75z" fill="#707070"/></svg>