<svg width="180" height="180" fill="none" xmlns="http://www.w3.org/2000/svg"><circle cx="90" cy="90" r="90" fill="#BDE6F1"/><rect x="20.634" y="24.886" width="138.732" height="152.906" rx="8.5" fill="#fff" stroke="#2FB1D3" stroke-width="3"/><path fill="#BDE6F1" d="M33.307 37.559h112.677v128.268H33.307z"/><path d="M59.173 105.591v26.574H85.04c-1.771 1.418-6.732 4.961-6.732 10.985 0 6.378 5.315 10.984 10.984 10.984 5.315 0 10.985-4.252 10.985-11.339 0-5.315-4.252-8.858-6.733-10.63h25.867v-26.574c2.125 2.834 5.481 6.732 11.338 6.732 5.669 0 10.63-4.961 10.63-10.984 0-6.024-4.961-10.985-10.63-10.985-6.732 0-9.921 4.961-11.338 6.733V71.929H93.898c2.126-2.126 6.378-5.315 6.378-10.984 0-4.485-3.544-10.984-10.985-10.984-7.086 0-10.984 6.023-10.984 10.984 0 5.67 4.252 9.212 6.732 10.984H59.173v25.158c-1.417-3.19-5.315-6.733-10.275-6.733-6.378 0-10.985 5.315-10.985 10.985 0 6.023 4.961 10.984 10.985 10.984 5.315 0 8.504-3.189 10.275-6.732z" fill="#fff" stroke="#2FB1D3" stroke-width="3" stroke-linejoin="round"/><path d="M86.093 111.098c-.169-.487-.319-1.115-.45-1.883a14.172 14.172 0 0 1-.197-2.333c0-1.199.235-2.277.703-3.233a13.736 13.736 0 0 1 1.8-2.726c.711-.843 1.489-1.65 2.332-2.417a39.382 39.382 0 0 0 2.333-2.362 13.575 13.575 0 0 0 1.771-2.501c.487-.88.73-1.846.73-2.895 0-.9-.177-1.696-.533-2.39a4.902 4.902 0 0 0-1.406-1.742 6.031 6.031 0 0 0-2.08-1.04 8.415 8.415 0 0 0-2.501-.366c-3.167 0-5.913 1.246-8.236 3.739V84c2.867-1.798 5.837-2.698 8.91-2.698 1.424 0 2.764.188 4.02.562 1.255.375 2.352.937 3.288 1.687a7.68 7.68 0 0 1 2.25 2.754c.543 1.106.814 2.39.814 3.851 0 1.387-.243 2.624-.73 3.71a13.41 13.41 0 0 1-1.856 3.008c-.73.9-1.527 1.743-2.389 2.53a48.417 48.417 0 0 0-2.417 2.361c-.731.768-1.34 1.574-1.827 2.418a5.459 5.459 0 0 0-.731 2.782c0 .862.103 1.649.309 2.361.206.694.412 1.284.618 1.771h-4.525zm2.53 11.693c-.825 0-1.556-.299-2.193-.899a2.94 2.94 0 0 1-.927-2.193c0-.88.309-1.611.927-2.192.619-.618 1.35-.928 2.193-.928s1.574.31 2.192.928c.619.581.928 1.312.928 2.192a2.94 2.94 0 0 1-.928 2.193c-.637.6-1.368.899-2.192.899z" fill="#2FB1D3"/><path fill="#E58B1C" d="M66.614 77.953h5.669v5.669h-5.669zM107.717 77.953h5.669v5.669h-5.669zM107.717 119.055h5.669v5.669h-5.669zM66.614 119.055h5.669v5.669h-5.669z"/></svg>