<svg width="164" height="164" fill="none" xmlns="http://www.w3.org/2000/svg"><circle cx="82" cy="82" r="82" fill="#BDE6F1"/><rect x="18.933" y="22.807" width="126.134" height="139.047" rx="8.5" fill="#fff" stroke="#2FB1D3" stroke-width="3"/><path fill="#BDE6F1" d="M30.346 34.221h102.661v116.866H30.346z"/><path d="M78.449 65.213H54.236V88.78c-1.291-1.615-4.52-6.134-10.008-6.134-5.81 0-10.008 4.842-10.008 10.008 0 4.842 3.874 10.007 10.331 10.007 4.843 0 8.071-3.874 9.685-6.133v23.567H78.45c-2.583 1.937-6.134 4.994-6.134 10.33 0 5.166 4.52 9.685 10.008 9.685 5.488 0 10.008-4.519 10.008-9.685 0-6.134-4.52-9.039-6.134-10.33h22.921V96.85c1.937 1.937 4.843 5.811 10.008 5.811 4.086 0 10.008-3.228 10.008-10.007 0-6.457-5.488-10.008-10.008-10.008-5.165 0-8.394 3.874-10.008 6.133V65.213H86.197c2.905-1.292 6.134-4.843 6.134-9.363 0-5.81-4.843-10.008-10.008-10.008-5.488 0-10.008 4.52-10.008 10.008 0 4.843 2.906 7.748 6.134 9.363z" fill="#fff" stroke="#2FB1D3" stroke-width="3" stroke-linejoin="round"/><path fill="#E58B1C" d="M61.016 71.347h5.165v5.165h-5.165zM98.465 71.347h5.165v5.165h-5.165z"/><path d="M62.953 92.33l8.716-8.716 1.937 1.937-6.78 6.78 7.103 7.102-2.26 2.26-8.716-9.362zM76.512 100.724l9.362-18.401 2.26 1.291-9.04 18.725-2.582-1.615zM90.716 85.228l2.26-2.26 9.04 9.363-9.04 9.362-2.26-2.26 7.103-7.102-7.103-7.103z" fill="#2FB1D3"/><path fill="#E58B1C" d="M98.465 108.795h5.165v5.165h-5.165zM61.016 108.795h5.165v5.165h-5.165z"/></svg>