<svg xmlns="http://www.w3.org/2000/svg" viewBox="0 0 16 16"><g data-name="Layer 2"><path data-name="question" d="M8 0a8 8 0 1 0 8 8 8 8 0 0 0-8-8zm.52 12.86a1.29 1.29 0 0 1-.9.32 1.3 1.3 0 0 1-.91-.33 1.07 1.07 0 0 1-.36-.85 1 1 0 0 1 .36-.8 1.32 1.32 0 0 1 .91-.32 1.28 1.28 0 0 1 .9.32 1 1 0 0 1 .36.8 1.06 1.06 0 0 1-.36.86zm2.06-6.57a2.54 2.54 0 0 1-.28.64 3.23 3.23 0 0 1-.46.58 8.45 8.45 0 0 1-.63.57l-.42.37a2.33 2.33 0 0 0-.3.34 1.32 1.32 0 0 0-.18.36 1.37 1.37 0 0 0-.06.43 1.32 1.32 0 0 0 0 .33 1 1 0 0 0 .12.29H6.62a2.09 2.09 0 0 1-.11-.4 2.54 2.54 0 0 1 0-.42 2.5 2.5 0 0 1 .06-.57 2 2 0 0 1 .18-.49A2.31 2.31 0 0 1 7 7.86a3.94 3.94 0 0 1 .43-.41L7.92 7a2.9 2.9 0 0 0 .33-.38 1.45 1.45 0 0 0 .21-.39 1.39 1.39 0 0 0 .07-.45 1 1 0 0 0-.08-.39.88.88 0 0 0-.22-.31 1 1 0 0 0-.34-.21 1.27 1.27 0 0 0-.45-.08 3.07 3.07 0 0 0-1.11.22 3.62 3.62 0 0 0-1.09.67v-2a4.28 4.28 0 0 1 1.16-.47 5.22 5.22 0 0 1 1.29-.16 4.76 4.76 0 0 1 1.18.14 2.71 2.71 0 0 1 1 .44 2.08 2.08 0 0 1 .64.77 2.54 2.54 0 0 1 .23 1.12 2.77 2.77 0 0 1-.15.76z"/></g></svg>