<?xml version="1.0" encoding="utf-8"?>
<svg xmlns="http://www.w3.org/2000/svg">
<symbol id="arrow-up"><path clip-rule="evenodd" d="M1 8a7 7 0 1 0 14 0A7 7 0 0 0 1 8zM0 8a8 8 0 1 0 16 0A8 8 0 0 0 0 8z"/><path d="M7.52 12.267a.453.453 0 0 1 0-.64l3.273-3.273a.5.5 0 0 0 0-.708L7.52 4.373a.453.453 0 0 1 .64-.64l3.913 3.913a.5.5 0 0 1 0 .708L8.16 12.267a.453.453 0 0 1-.64 0z"/><path d="M11.733 8.033v-.066a.5.5 0 0 0-.5-.5h-7a.5.5 0 0 0-.5.5v.066a.5.5 0 0 0 .5.5h7a.5.5 0 0 0 .5-.5z"/>
</symbol>
<symbol id="bookmark"><path d="M1.984 1.844a1 1 0 0 1 1-1h10a1 1 0 0 1 1 1v12.634c0 .884-1.062 1.333-1.696.717l-3.62-3.516a1 1 0 0 0-1.396.002l-3.589 3.504c-.633.618-1.699.17-1.699-.715V1.844z"/>
</symbol>
<symbol id="calendar" viewBox="0 0 16 16"><path d="M7 2V1h2v1zM6 0H5v3h1zm5 0h-1v3h1zm5 3v11a2 2 0 0 1-2 2H2a2 2 0 0 1-2-2V3a2 2 0 0 1 2-2h2v3h3V2h2v2h3V1h2a2 2 0 0 1 2 2zm-1 2H1v9a1 1 0 0 0 1 1h12a1 1 0 0 0 1-1zM3 9h2V7H3zm4-2h2v2H7zm6 0v2h-2V7zM3 11h2v2H3zm4 0h2v2H7zm4 0h2v2h-2z"/>
</symbol>
<symbol id="check-list"><path d="M6.65.35H.35v6.3h6.3V.35z" fill="#E3E3E3"/><path d="M6.3.7v5.6H.7V.7h5.6zM7 0H0v7h7V0z" fill="#C4C4C4"/><path d="M6.65 10.85H.35v6.3h6.3v-6.3z" fill="#E3E3E3"/><path d="M6.3 11.2v5.6H.7v-5.6h5.6zm.7-.7H0v7h7v-7z" fill="#C4C4C4"/><path d="M6.65 21.35H.35v6.3h6.3v-6.3z" fill="#E3E3E3"/><path d="M6.3 21.7v5.6H.7v-5.6h5.6zM7 21H0v7h7v-7z" fill="#C4C4C4"/><path d="M4.167 16.334l-3-3.194 1.4-1.49 1.6 1.691 3.765-4.007 1.401 1.49-5.166 5.51z" fill="#AAA"/><path fill="#C4C4C4" d="M10.5 2.333H28v2.333H10.5zM10.5 12.834H28v2.333H10.5zM10.5 23.334H28v2.333H10.5z"/>
</symbol>
<symbol id="check"><path d="M7.255 13.277a1 1 0 0 1-1.425-.003L1.189 8.538a1 1 0 0 1 .003-1.403l.502-.507a1 1 0 0 1 1.422 0l3.425 3.464 7.343-7.378a1 1 0 0 1 1.42.003l.5.507a1 1 0 0 1 0 1.406l-8.549 8.647z" fill="#27B467"/>
</symbol>
<symbol id="circled-check"><path fill-rule="evenodd" clip-rule="evenodd" d="M8 15A7 7 0 1 0 8 1a7 7 0 0 0 0 14zm0 1A8 8 0 1 0 8 0a8 8 0 0 0 0 16z" fill="#247BAB"/><path d="M7.02 11.429L4 8.199l.952-1.009L7.02 9.381l4.028-4.238L12 6.152l-4.98 5.277z" fill="#247BAB"/>
</symbol>
<symbol id="clock-incomplete"><path d="M7.5 7.97l2.328 1.528-.823 1.254L6 8.78V4h1.5v3.97z" fill="#6E6E6E"/><path d="M11.114 12.663A7 7 0 1 1 14 7h-1.26a5.74 5.74 0 1 0-2.366 4.644l.74 1.02z" fill="#6E6E6E"/><path d="M13.5 10L11 7h5l-2.5 3z" fill="#6E6E6E"/>
</symbol>
<symbol id="clock"><path fill-rule="evenodd" clip-rule="evenodd" d="M8.5 15.938a7.438 7.438 0 1 0 0-14.876 7.438 7.438 0 0 0 0 14.876zM8.5 17a8.5 8.5 0 1 0 0-17 8.5 8.5 0 0 0 0 17z" fill="#6E6E6E"/><path d="M7.438 4.25H8.5v4.569l4.037 2.868-.667 1.063-4.432-3.188V4.25z" fill="#6E6E6E"/>
</symbol>
<symbol id="close"><path d="M12.905 13.85L2.149 3.096c-.199-.199-.199-.547 0-.746l.2-.2c.199-.199.547-.199.746 0l10.756 10.756c.199.199.199.547 0 .747l-.2.199c-.199.199-.547.199-.746 0z" fill="#4C4C4C"/><path d="M3.14 13.856l10.711-10.76a.543.543 0 0 0 0-.747l-.198-.2a.537.537 0 0 0-.744 0L2.15 12.86a.544.544 0 0 0 0 .748l.198.2c.248.248.595.248.793.05z" fill="#4C4C4C"/>
</symbol>
<symbol id="cloud" viewBox="0 0 16 11"><path d="M0 7.33A3.67 3.67 0 0 0 3.67 11h8.66a3.66 3.66 0 0 0 1.33-7.08v-.09a3.83 3.83 0 0 0-7-2.1A2.33 2.33 0 0 0 3 3.67v.06a3.66 3.66 0 0 0-3 3.6z"/>
</symbol>
<symbol id="complete" viewBox="0 0 16 16"><path d="M8 1a7 7 0 1 1-7 7 7 7 0 0 1 7-7m0-1a8 8 0 1 0 8 8 8 8 0 0 0-8-8zM7 11.17L3.87 8l1-1L7 9.19l4.13-4.11 1 1z" fill="#3cbb76"/>
</symbol>
<symbol id="configure"><path d="M14.65 9.51l-1.384-.977v-.055c0-.108 0-.163.057-.271v-.272-.272-.326-.217-.109c0-.054 0-.109-.057-.218l1.383-.978c.346-.163.462-.598.231-.87l-1.153-1.902c-.173-.326-.634-.434-.923-.217l-1.614.652-.058-.054-.057-.054s-.058 0-.058-.055c0 0-.058 0-.058-.054l-.057-.054c-.058 0-.058-.055-.116-.055-.057-.054-.115-.054-.173-.109h-.057l-.346-.163c-.173-.054-.288-.163-.461-.217H9.69L9.518.978C9.345.38 9.057 0 8.653 0H6.347c-.404 0-.692.38-.692.707L5.482 2.39v.055h-.058c-.057 0-.115.054-.173.054h-.057c-.058 0-.116.054-.173.054 0 0-.058 0-.058.055-.058 0-.115.054-.115.054-.058 0-.058.054-.116.054 0 0-.057 0-.057.055a.448.448 0 0 1-.23.108c-.058.055-.116.055-.174.11-.288.217-.346.27-.403.27H3.81s-.058 0-.058.055l-1.556-.652c-.346-.163-.75-.054-.923.272L.12 4.837a.644.644 0 0 0 .23.87l1.384.978v.108c0 .055 0 .164-.057.218v1.087c.057.163.057.217.057.326v.054l-1.383.979c-.346.163-.462.597-.231.87l1.153 1.901c.173.326.634.435.923.218l1.614-.652h.058s.057 0 .057.054l.058.054s.058 0 .058.055l.057.054h.058l.058.054h.057c.116.055.173.109.289.163h.057l.346.163c.173.109.346.163.577.218l.173 1.684c0 .38.288.707.692.707H8.71c.403 0 .692-.38.692-.707l.173-1.684.057-.055c.058 0 .116-.054.173-.054h.058c.058 0 .115-.054.173-.054 0 0 .057 0 .057-.055.058 0 .116-.054.116-.054.057 0 .057-.054.115-.054 0 0 .058 0 .058-.055a.448.448 0 0 1 .23-.108h.058c.058-.055.115-.11.173-.11a.792.792 0 0 1 .23-.162s.058 0 .058-.055l1.615.653c.346.163.75.054.922-.218l1.153-1.902c.289-.217.173-.652-.173-.815zm-7.15.273c-1.268 0-2.306-.979-2.306-2.174 0-1.196 1.038-2.174 2.306-2.174s2.306.978 2.306 2.174c0 1.195-1.038 2.174-2.306 2.174z" fill="#6E6E6E"/>
</symbol>
<symbol id="context-menu"><path fill-rule="evenodd" clip-rule="evenodd" d="M15 3a3 3 0 1 1-6 0 3 3 0 0 1 6 0zm-3 12a3 3 0 1 0 0-6 3 3 0 0 0 0 6zm0 9a3 3 0 1 0 0-6 3 3 0 0 0 0 6z" fill="#6E6E6E"/>
</symbol>
<symbol id="cost-color" viewBox="0 0 32 32"><g fill="#C2DCD3"><path d="M3 16h7v2H3zM3 19h7v2H3zM3 22h7v2H3zM3 25h7v2H3zM3 28h7v2H3zM12 16h7v2h-7zM12 19h7v2h-7zM12 22h7v2h-7zM12 25h7v2h-7zM12 4h7v2h-7zM12 7h7v2h-7zM12 10h7v2h-7zM12 13h7v2h-7zM21 22h7v2h-7zM21 25h7v2h-7zM21 28h7v2h-7zM12 28h7v2h-7z"/></g><circle fill="#477378" cx="6.5" cy="10.5" r="3.5"/><circle fill="#E58B1C" cx="24.5" cy="16.5" r="3.5"/>
</symbol>
<symbol id="cost" viewBox="0 0 32 32"><path d="M26.71 10.69c2.36 0 4.28 1.9 4.28 4.25s-1.92 4.25-4.28 4.25c-2.37 0-4.28-1.9-4.28-4.25 0-2.34 1.92-4.25 4.28-4.25zM5.4 2.13c2.36 0 4.28 1.91 4.28 4.27s-1.92 4.27-4.28 4.27c-2.36 0-4.28-1.91-4.28-4.27S3.04 2.13 5.4 2.13zM1.12 29.87h8.53V32H1.12v-2.13zM1.12 25.6h8.53v2.13H1.12V25.6zM1.12 21.33h8.53v2.13H1.12v-2.13zM1.12 17.07h8.53v2.13H1.12v-2.13zM1.12 12.8h8.53v2.13H1.12V12.8zM11.79 0h8.53v2.13h-8.53V0zM11.79 4.27h8.53V6.4h-8.53V4.27zM11.79 8.53h8.53v2.13h-8.53V8.53zM11.79 12.8h8.53v2.13h-8.53V12.8zM11.79 17.07h8.53v2.13h-8.53v-2.13zM11.79 21.33h8.53v2.13h-8.53v-2.13zM11.79 25.6h8.53v2.13h-8.53V25.6zM11.79 29.87h8.53V32h-8.53v-2.13zM22.46 21.33h8.53v2.13h-8.53v-2.13zM22.46 25.6h8.53v2.13h-8.53V25.6zM22.46 29.87h8.53V32h-8.53v-2.13z" fill-rule="evenodd" clip-rule="evenodd" fill="#6e6e6e"/>
</symbol>
<symbol id="critical" viewBox="0 0 32 32"><path d="M2.99 25.05L24.98 3.06l4.03 4.03L7.02 29.082z"/><path d="M25.05 29.01L3.06 7.02l4.03-4.03 21.991 21.99z"/>
</symbol>
<symbol id="delete" viewBox="0 0 32 32"><path d="M25.8 27.8L4.2 6.2c-.4-.4-.4-1.1 0-1.5l.4-.4c.4-.4 1.1-.4 1.5 0l21.6 21.6c.4.4.4 1.1 0 1.5l-.4.4c-.4.4-1.1.4-1.5 0z"/><path d="M6.2 27.8L27.8 6.2c.4-.4.4-1.1 0-1.5l-.4-.4c-.4-.4-1.1-.4-1.5 0L4.2 25.8c-.4.4-.4 1.1 0 1.5l.4.4c.5.5 1.2.5 1.6.1z"/>
</symbol>
<symbol id="disabled"><path d="M7.056.022L.17 6.764 1.432 8l6.886-6.743L7.056.022z"/><path d="M.192 1.236l6.886 6.742L8.34 6.743 1.454 0 .192 1.236z"/>
</symbol>
<symbol id="dropdown-select"><path d="M8.271 13.692l-4-3h8l-4 3zM8.271 3.692l4 3h-8l4-3z" fill="#4C4C4C"/>
</symbol>
<symbol id="filter-controls"><path d="M2.462 12.454H0v1.273h2.462v-1.273zm4.307-1.272H4.308a.63.63 0 0 0-.616.636v2.546a.63.63 0 0 0 .616.636h2.461a.63.63 0 0 0 .616-.636v-2.546a.63.63 0 0 0-.616-.636zm.616-3.818H0v1.272h7.385V7.364zM2.462 2.273H0v1.272h2.462V2.273zM16 12.454H8.615v1.273H16v-1.273zM6.77 1H4.307a.63.63 0 0 0-.616.636v2.546a.63.63 0 0 0 .616.636h2.461a.63.63 0 0 0 .616-.636V1.636A.63.63 0 0 0 6.769 1zm4.922 5.09H9.231a.63.63 0 0 0-.616.637v2.546a.63.63 0 0 0 .616.636h2.461a.63.63 0 0 0 .616-.636V6.727a.63.63 0 0 0-.616-.636zM16 7.365h-2.461v1.272H16V7.364zm0-5.091H8.615v1.272H16V2.273z"/>
</symbol>
<symbol id="indicator-active"><circle cx="8.5" cy="8.5" r="8" stroke="#008FC7"/><circle cx="8.5" cy="8.5" r="4.25" fill="#008FC7"/>
</symbol>
<symbol id="info" viewBox="0 0 32 32"><path d="M16 30C8.3 30 2 23.7 2 16S8.3 2 16 2s14 6.3 14 14-6.3 14-14 14zm0-24C10.4 6 5.9 10.5 5.9 16S10.4 26 16 26s10.1-4.5 10.1-10S21.6 6 16 6z"/>
</symbol>
<symbol id="license" viewBox="0 0 32 32"><path fill="#C2DCD3" d="M13.67 23.28l.36.44-.54 6.53s-3.72-2.38-7 1l2.22-9.64h.06l.85-.06.25.81c.07.22.16.42.29.61.5.74 1.38 1.08 2.26.87.17-.04.33-.1.49-.18l.76-.38zm8.48-1.58l-.27.81c-.05.17-.13.33-.22.48a2.1 2.1 0 0 1-2.21.98c-.22-.04-.43-.12-.64-.23l-.75-.4-.12.13.56 6.78s3.72-2.38 7 1l-2.19-9.48c-.11.01-.22.03-.33.02l-.83-.09z"/><path fill="#477378" d="M27.28 11.71c-.06-.08-.12-.15-.2-.22l-.64-.56c-.34-.28-.44-.83-.23-1.22l.4-.75c.06-.12.1-.24.13-.36.09-.47-.11-.92-.52-1.17-.08-.05-.17-.09-.27-.12l-.81-.27c-.42-.13-.72-.6-.68-1.04l.08-.85a1.2 1.2 0 0 0-.02-.38c-.09-.46-.45-.81-.93-.88-.09-.01-.19-.02-.3-.01l-.85.06c-.44.03-.9-.29-1.03-.71l-.25-.81c-.04-.13-.09-.24-.16-.34-.26-.39-.72-.57-1.19-.46-.09.02-.19.06-.28.1l-.76.38c-.39.2-.94.08-1.22-.26l-.54-.66c-.08-.1-.18-.19-.28-.25-.39-.26-.89-.25-1.28.03-.08.06-.15.12-.22.2l-.56.64c-.29.33-.84.44-1.23.23l-.75-.4c-.12-.06-.24-.1-.36-.13-.46-.09-.92.11-1.17.52-.05.08-.09.17-.12.27l-.24.82c-.14.42-.61.72-1.05.68l-.85-.08c-.13-.01-.26 0-.37.02-.47.09-.81.45-.88.93-.01.09-.02.19-.01.3l.06.84c.03.44-.29.9-.71 1.03l-.81.25c-.13.03-.25.09-.35.16-.39.26-.57.72-.45 1.19.02.09.06.19.1.28l.38.76c.2.39.08.94-.26 1.22l-.66.54c-.1.08-.19.18-.25.28-.26.39-.25.89.03 1.28.06.08.12.15.2.22l.64.56c.34.28.44.83.23 1.22l-.4.75c-.06.12-.1.24-.13.36-.09.47.11.92.52 1.17.08.05.17.09.27.12l.81.27c.42.14.72.61.68 1.05l-.08.85c-.01.13-.01.26.02.38.09.46.45.81.93.88.09.01.19.02.3.01l.85-.06c.44-.03.9.29 1.03.71l.25.81c.04.13.09.24.16.34.26.39.72.57 1.19.46.09-.02.19-.06.28-.1l.76-.38c.39-.2.94-.08 1.22.26l.54.66c.08.1.18.19.28.25.06.04.13.07.19.1.35.15.76.11 1.09-.14.08-.06.15-.12.22-.2l.56-.64c.29-.33.84-.44 1.23-.23l.75.4c.12.06.24.1.36.13.47.09.92-.11 1.17-.52.05-.08.09-.17.12-.27l.27-.81c.14-.42.61-.72 1.05-.68l.85.08c.13.01.26.01.38-.02.46-.09.81-.45.88-.93.01-.09.02-.19.01-.3l-.1-.85c-.03-.44.29-.9.71-1.03l.81-.25c.13-.04.24-.09.34-.16.39-.26.57-.72.46-1.19-.02-.09-.06-.19-.1-.28l-.38-.76c-.2-.39-.08-.94.26-1.22l.66-.54c.1-.08.19-.18.25-.28.26-.39.25-.89-.03-1.28zM16 19.5c-4.14 0-7.5-3.36-7.5-7.5s3.36-7.5 7.5-7.5 7.5 3.36 7.5 7.5-3.36 7.5-7.5 7.5z"/><circle fill="#FFF" cx="16" cy="12" r="6.5"/><path fill="#E58B1C" d="M16 8.2l1.24 2.5 2.76.4-2 1.95.47 2.75L16 14.5l-2.47 1.3.47-2.75-2-1.95 2.76-.4z"/>
</symbol>
<symbol id="lightbulb"><path d="M12.337 7.59a4.378 4.378 0 0 0-1.45-3.263A4.384 4.384 0 0 0 7.507 3.24c-1.999.222-3.624 1.864-3.822 3.883a4.477 4.477 0 0 0 1.296 3.64c.351.355.615.754.769 1.198a.432.432 0 0 0-.308.422c0 .244.198.444.44.444v.51c-.242 0-.44.2-.44.444s.198.444.44.444v.177c0 .932.878 1.598 2.13 1.598 1.252 0 2.13-.644 2.13-1.598v-.177c.242 0 .44-.2.44-.444a.443.443 0 0 0-.44-.444v-.51c.242 0 .44-.2.44-.444 0-.2-.132-.378-.308-.422.154-.444.417-.843.769-1.198a4.584 4.584 0 0 0 1.295-3.174zm-3.096 5.214v.51H6.737v-.51h2.504zM7.989 15.09c-.505 0-1.252-.178-1.252-.71v-.178h2.504v.178c0 .532-.747.71-1.252.71zm1.34-3.173h-2.68a3.975 3.975 0 0 0-1.076-1.82A3.485 3.485 0 0 1 4.541 7.19c.176-1.62 1.45-2.93 3.053-3.107.131-.022.263-.022.395-.022.856 0 1.669.31 2.306.888a3.582 3.582 0 0 1 1.164 2.618 3.46 3.46 0 0 1-1.076 2.53 3.93 3.93 0 0 0-1.054 1.82zM7.99 2.22c.241 0 .44-.2.44-.445V.444A.443.443 0 0 0 7.99 0c-.242 0-.44.2-.44.444v1.331c0 .244.198.444.44.444zM3.618 3.795a.431.431 0 0 0 .308.133c.11 0 .22-.044.307-.133a.432.432 0 0 0 0-.622l-.922-.954a.422.422 0 0 0-.615 0 .432.432 0 0 0 0 .622l.922.954zM2.696 7.59a.443.443 0 0 0-.44-.444H.94a.443.443 0 1 0 0 .888h1.318c.242 0 .44-.2.44-.445zM3.619 11.362l-.945.954a.432.432 0 0 0 0 .622.431.431 0 0 0 .308.133c.11 0 .22-.045.307-.133l.944-.955a.432.432 0 0 0 0-.621c-.175-.178-.439-.155-.614 0zM12.36 11.362a.422.422 0 0 0-.615 0 .432.432 0 0 0 0 .621l.945.954a.432.432 0 0 0 .307.134c.11 0 .22-.045.308-.133a.432.432 0 0 0 0-.622l-.945-.954zM15.06 7.146h-1.317a.443.443 0 1 0 0 .888h1.318c.241 0 .439-.2.439-.445a.443.443 0 0 0-.44-.443zM12.053 3.928c.11 0 .22-.044.307-.133l.945-.954a.432.432 0 0 0 0-.622.422.422 0 0 0-.615 0l-.945.954a.432.432 0 0 0 0 .622.432.432 0 0 0 .308.133z" fill="#000"/>
</symbol>
<symbol id="link-small"><path d="M1.425 7.5A2.327 2.327 0 0 1 3.75 5.175h2.287a.713.713 0 0 0 0-1.425H3.75C1.68 3.75 0 5.43 0 7.5c0 2.07 1.68 3.75 3.75 3.75h2.287a.713.713 0 0 0 0-1.425H3.75A2.327 2.327 0 0 1 1.425 7.5zm3.075 0c0 .414.336.75.75.75h4.5a.75.75 0 0 0 0-1.5h-4.5a.75.75 0 0 0-.75.75zm6.75-3.75H8.963a.713.713 0 0 0 0 1.425h2.287A2.327 2.327 0 0 1 13.575 7.5a2.327 2.327 0 0 1-2.325 2.325H8.963a.713.713 0 0 0 0 1.425h2.287c2.07 0 3.75-1.68 3.75-3.75 0-2.07-1.68-3.75-3.75-3.75z" fill="#707070"/>
</symbol>
<symbol id="link" viewBox="0 0 16 16"><g data-name="Layer 2"><g data-name="Layer 1"><path d="M14.72 7.48l-2.07 2.06a3.8 3.8 0 0 1-.37.33 4.25 4.25 0 0 1-1.6.81 4.31 4.31 0 0 1-1.6.12 4.38 4.38 0 0 1-1.44-.41 4.45 4.45 0 0 1-2-2 1.47 1.47 0 0 1 1.88.16 2.86 2.86 0 0 0 1.88.85 2.9 2.9 0 0 0 2.25-.85l2.07-2.06a2.92 2.92 0 1 0-4.17-4.17L8 3.9a6 6 0 0 0-1.84-.19q.15-.18.33-.36l2.02-2.07a4.39 4.39 0 0 1 6.21 6.2z"/><path d="M9.55 12.64l-2.07 2.07a4.38 4.38 0 1 1-6.2-6.2l2.06-2.06a3.8 3.8 0 0 1 .37-.33 4.41 4.41 0 0 1 1.6-.81 4.43 4.43 0 0 1 3 .29 4.31 4.31 0 0 1 1.2.85 4.22 4.22 0 0 1 .84 1.19 1.47 1.47 0 0 1-1.88-.16 2.91 2.91 0 0 0-3.32-.57 2.83 2.83 0 0 0-.81.57L2.31 9.54a2.93 2.93 0 0 0 4.14 4.14L8 12.09a6 6 0 0 0 1.84.19c-.07.12-.18.25-.29.36z"/></g></g>
</symbol>
<symbol id="linking-users"><path fill="#fff" d="M0 0h164v164H0z"/><circle cx="82" cy="82" r="76.5" fill="#fff" stroke="#2FB1D3" stroke-width="11"/><path d="M103.781 86.484c0 3.204.641 5.766 1.602 6.086 6.513-.106 19.923-.32 21.461-.32 1.281 0 1.281-5.125 1.281-8.008 0-2.9-2.883-4.484-4.484-4.484 0-1.281-1.607-2.163-2.242-2.242-5.125-.641-8.969-.641-11.532 0-3.203 0-6.086 4.792-6.086 8.968z" fill="#2FB1D3"/><path d="M137.094 124.281H95.133c0-6.086 3.523-15.375 11.851-19.219 2.563 1.922 5.766 3.844 9.289 3.844 3.524 0 7.047-2.242 8.969-3.844 6.086 2.883 11.852 10.571 11.852 19.219zM126.203 92.25c.32 8.969-6.726 12.172-9.93 12.172-10.25-.32-10.57-8.969-10.57-14.734 0-4.496 4.164-7.047 5.766-7.047 1.601 0 3.203 1.921 5.445 1.921 1.794 0 4.378-.854 5.445-1.28 1.175 0 3.588 1.793 3.844 8.968z" fill="#BDE6F1"/><path d="M68.867 29.309c0 3.203.64 5.765 1.602 6.085 6.513-.106 19.923-.32 21.46-.32 1.282 0 1.282-5.125 1.282-8.008 0-2.9-2.883-4.484-4.484-4.484 0-1.281-1.607-2.163-2.243-2.242-5.124-.64-8.968-.64-11.53 0-3.204 0-6.087 4.792-6.087 8.969z" fill="#2FB1D3"/><path d="M102.18 67.105H60.219c0-6.086 3.523-15.375 11.851-19.218 2.563 1.922 5.766 3.843 9.29 3.843 3.523 0 7.046-2.242 8.968-3.843 6.086 2.883 11.852 10.57 11.852 19.218zM91.29 35.074c.32 8.969-6.728 12.172-9.93 12.172-10.25-.32-10.57-8.969-10.57-14.734 0-4.496 4.163-7.047 5.765-7.047 1.601 0 3.203 1.922 5.445 1.922 1.794 0 4.378-.854 5.445-1.282 1.175 0 3.588 1.794 3.844 8.97z" fill="#BDE6F1"/><path d="M38.758 28.188H62.14v5.125H43.883v24.023l4.164-4.164 3.203 3.203L41 66.625l-9.93-9.93 3.524-3.523 4.164 4.164V28.188zM123.961 28.188h-23.383v5.125h18.258v24.023l-4.164-4.164-3.203 3.203 10.25 10.25 9.929-9.93-3.523-3.523-4.164 4.164V28.188z" fill="#2FB1D3"/><path d="M93.594 94.813c0 7.11-5.765 12.875-12.875 12.875s-12.875-5.765-12.875-12.876c0-7.11 5.764-12.874 12.875-12.874 7.11 0 12.875 5.764 12.875 12.874z" fill="#fff" stroke="#2FB1D3" stroke-width="5"/><path d="M73.031 94.492l2.242-2.242 3.524 3.523 7.047-7.046 2.562 2.562-9.289 9.289-6.086-6.086z" fill="#E58B1C"/><path d="M34.273 86.484c0 3.204.641 5.766 1.602 6.086 6.513-.106 19.924-.32 21.461-.32 1.281 0 1.281-5.125 1.281-8.008 0-2.9-2.883-4.484-4.484-4.484 0-1.281-1.607-2.163-2.242-2.242-5.125-.641-8.969-.641-11.532 0-3.203 0-6.086 4.792-6.086 8.968z" fill="#2FB1D3"/><path d="M67.586 124.281H25.625c0-6.086 3.523-15.375 11.852-19.219 2.562 1.922 5.765 3.844 9.289 3.844 3.523 0 7.047-2.242 8.968-3.844 6.086 2.883 11.852 10.571 11.852 19.219zM56.695 92.25c.32 8.969-6.726 12.172-9.93 12.172-10.25-.32-10.57-8.969-10.57-14.734 0-4.496 4.164-7.047 5.766-7.047 1.602 0 3.203 1.921 5.445 1.921 1.794 0 4.378-.854 5.446-1.28 1.174 0 3.587 1.793 3.843 8.968z" fill="#BDE6F1"/>
</symbol>
<symbol id="minus" viewBox="0 0 32 32"><path d="M16 31C7.73 31 1 24.27 1 16S7.73 1 16 1s15 6.73 15 15-6.73 15-15 15zm0-27.93C8.87 3.07 3.07 8.87 3.07 16S8.87 28.93 16 28.93 28.93 23.13 28.93 16 23.13 3.07 16 3.07z"/><path d="M8 14h16v4H8z"/>
</symbol>
<symbol id="missing-connector-question"><circle cx="90" cy="90" r="90" fill="#BDE6F1"/><rect x="20.634" y="24.886" width="138.732" height="152.906" rx="8.5" fill="#fff" stroke="#2FB1D3" stroke-width="3"/><path fill="#BDE6F1" d="M33.307 37.559h112.677v128.268H33.307z"/><path d="M59.173 105.591v26.574H85.04c-1.771 1.418-6.732 4.961-6.732 10.985 0 6.378 5.315 10.984 10.984 10.984 5.315 0 10.985-4.252 10.985-11.339 0-5.315-4.252-8.858-6.733-10.63h25.867v-26.574c2.125 2.834 5.481 6.732 11.338 6.732 5.669 0 10.63-4.961 10.63-10.984 0-6.024-4.961-10.985-10.63-10.985-6.732 0-9.921 4.961-11.338 6.733V71.929H93.898c2.126-2.126 6.378-5.315 6.378-10.984 0-4.485-3.544-10.984-10.985-10.984-7.086 0-10.984 6.023-10.984 10.984 0 5.67 4.252 9.212 6.732 10.984H59.173v25.158c-1.417-3.19-5.315-6.733-10.275-6.733-6.378 0-10.985 5.315-10.985 10.985 0 6.023 4.961 10.984 10.985 10.984 5.315 0 8.504-3.189 10.275-6.732z" fill="#fff" stroke="#2FB1D3" stroke-width="3" stroke-linejoin="round"/><path d="M86.093 111.098c-.169-.487-.319-1.115-.45-1.883a14.172 14.172 0 0 1-.197-2.333c0-1.199.235-2.277.703-3.233a13.736 13.736 0 0 1 1.8-2.726c.711-.843 1.489-1.65 2.332-2.417a39.382 39.382 0 0 0 2.333-2.362 13.575 13.575 0 0 0 1.771-2.501c.487-.88.73-1.846.73-2.895 0-.9-.177-1.696-.533-2.39a4.902 4.902 0 0 0-1.406-1.742 6.031 6.031 0 0 0-2.08-1.04 8.415 8.415 0 0 0-2.501-.366c-3.167 0-5.913 1.246-8.236 3.739V84c2.867-1.798 5.837-2.698 8.91-2.698 1.424 0 2.764.188 4.02.562 1.255.375 2.352.937 3.288 1.687a7.68 7.68 0 0 1 2.25 2.754c.543 1.106.814 2.39.814 3.851 0 1.387-.243 2.624-.73 3.71a13.41 13.41 0 0 1-1.856 3.008c-.73.9-1.527 1.743-2.389 2.53a48.417 48.417 0 0 0-2.417 2.361c-.731.768-1.34 1.574-1.827 2.418a5.459 5.459 0 0 0-.731 2.782c0 .862.103 1.649.309 2.361.206.694.412 1.284.618 1.771h-4.525zm2.53 11.693c-.825 0-1.556-.299-2.193-.899a2.94 2.94 0 0 1-.927-2.193c0-.88.309-1.611.927-2.192.619-.618 1.35-.928 2.193-.928s1.574.31 2.192.928c.619.581.928 1.312.928 2.192a2.94 2.94 0 0 1-.928 2.193c-.637.6-1.368.899-2.192.899z" fill="#2FB1D3"/><path fill="#E58B1C" d="M66.614 77.953h5.669v5.669h-5.669zM107.717 77.953h5.669v5.669h-5.669zM107.717 119.055h5.669v5.669h-5.669zM66.614 119.055h5.669v5.669h-5.669z"/>
</symbol>
<symbol id="missing-connector"><circle cx="82" cy="82" r="82" fill="#BDE6F1"/><rect x="18.933" y="22.807" width="126.134" height="139.047" rx="8.5" fill="#fff" stroke="#2FB1D3" stroke-width="3"/><path fill="#BDE6F1" d="M30.346 34.221h102.661v116.866H30.346z"/><path d="M78.449 65.213H54.236V88.78c-1.291-1.615-4.52-6.134-10.008-6.134-5.81 0-10.008 4.842-10.008 10.008 0 4.842 3.874 10.007 10.331 10.007 4.843 0 8.071-3.874 9.685-6.133v23.567H78.45c-2.583 1.937-6.134 4.994-6.134 10.33 0 5.166 4.52 9.685 10.008 9.685 5.488 0 10.008-4.519 10.008-9.685 0-6.134-4.52-9.039-6.134-10.33h22.921V96.85c1.937 1.937 4.843 5.811 10.008 5.811 4.086 0 10.008-3.228 10.008-10.007 0-6.457-5.488-10.008-10.008-10.008-5.165 0-8.394 3.874-10.008 6.133V65.213H86.197c2.905-1.292 6.134-4.843 6.134-9.363 0-5.81-4.843-10.008-10.008-10.008-5.488 0-10.008 4.52-10.008 10.008 0 4.843 2.906 7.748 6.134 9.363z" fill="#fff" stroke="#2FB1D3" stroke-width="3" stroke-linejoin="round"/><path fill="#E58B1C" d="M61.016 71.347h5.165v5.165h-5.165zM98.465 71.347h5.165v5.165h-5.165z"/><path d="M62.953 92.33l8.716-8.716 1.937 1.937-6.78 6.78 7.103 7.102-2.26 2.26-8.716-9.362zM76.512 100.724l9.362-18.401 2.26 1.291-9.04 18.725-2.582-1.615zM90.716 85.228l2.26-2.26 9.04 9.363-9.04 9.362-2.26-2.26 7.103-7.102-7.103-7.103z" fill="#2FB1D3"/><path fill="#E58B1C" d="M98.465 108.795h5.165v5.165h-5.165zM61.016 108.795h5.165v5.165h-5.165z"/>
</symbol>
<symbol id="move-down"><path d="M1.22 0L8 5.66 14.78 0 16 1.33 8 8 0 1.33 1.22 0z"/>
</symbol>
<symbol id="move-up" viewBox="0 0 16 8"><path d="M14.78 8L8 2.34 1.22 8 0 6.67 8 0l8 6.67L14.78 8z"/>
</symbol>
<symbol id="plus" viewBox="0 0 32 32"><path d="M16 31C7.73 31 1 24.27 1 16S7.73 1 16 1s15 6.73 15 15-6.73 15-15 15zm0-27.93C8.87 3.07 3.07 8.87 3.07 16S8.87 28.93 16 28.93 28.93 23.13 28.93 16 23.13 3.07 16 3.07z"/><path d="M8 14h16v4H8z"/><path d="M18 8v16h-4V8z"/>
</symbol>
<symbol id="question" viewBox="0 0 16 16"><g data-name="Layer 2"><path data-name="question" d="M8 0a8 8 0 1 0 8 8 8 8 0 0 0-8-8zm.52 12.86a1.29 1.29 0 0 1-.9.32 1.3 1.3 0 0 1-.91-.33 1.07 1.07 0 0 1-.36-.85 1 1 0 0 1 .36-.8 1.32 1.32 0 0 1 .91-.32 1.28 1.28 0 0 1 .9.32 1 1 0 0 1 .36.8 1.06 1.06 0 0 1-.36.86zm2.06-6.57a2.54 2.54 0 0 1-.28.64 3.23 3.23 0 0 1-.46.58 8.45 8.45 0 0 1-.63.57l-.42.37a2.33 2.33 0 0 0-.3.34 1.32 1.32 0 0 0-.18.36 1.37 1.37 0 0 0-.06.43 1.32 1.32 0 0 0 0 .33 1 1 0 0 0 .12.29H6.62a2.09 2.09 0 0 1-.11-.4 2.54 2.54 0 0 1 0-.42 2.5 2.5 0 0 1 .06-.57 2 2 0 0 1 .18-.49A2.31 2.31 0 0 1 7 7.86a3.94 3.94 0 0 1 .43-.41L7.92 7a2.9 2.9 0 0 0 .33-.38 1.45 1.45 0 0 0 .21-.39 1.39 1.39 0 0 0 .07-.45 1 1 0 0 0-.08-.39.88.88 0 0 0-.22-.31 1 1 0 0 0-.34-.21 1.27 1.27 0 0 0-.45-.08 3.07 3.07 0 0 0-1.11.22 3.62 3.62 0 0 0-1.09.67v-2a4.28 4.28 0 0 1 1.16-.47 5.22 5.22 0 0 1 1.29-.16 4.76 4.76 0 0 1 1.18.14 2.71 2.71 0 0 1 1 .44 2.08 2.08 0 0 1 .64.77 2.54 2.54 0 0 1 .23 1.12 2.77 2.77 0 0 1-.15.76z"/></g>
</symbol>
<symbol id="success" viewBox="0 0 16 16"><path d="M8 1a7 7 0 1 1-7 7 7 7 0 0 1 7-7m0-1a8 8 0 1 0 8 8 8 8 0 0 0-8-8zM7 11.17L3.87 8l1-1L7 9.19l4.13-4.11 1 1z" fill="#fff"/>
</symbol>
<symbol id="trash"><path d="M10 5H9v8h1V5zM7 5H6v8h1V5z" fill="#4C4C4C"/><path d="M13.25 3H11V1H5v2H1v1.056h2V15h10V4.056h2V3h-1.75zM6 2h4v1H6V2zm6 12H4V4.056h8V14z" fill="#4C4C4C"/>
</symbol>
<symbol id="undo"><path d="M14.08 2.816C11.6.395 7.28.395 4.8 2.816L2 5.55V3.119H0v5.857h6V7.024H3.49L6.215 4.26c1.72-1.684 4.725-1.714 6.45-.03A4.36 4.36 0 0 1 14 7.405c0 1.152-.475 2.26-1.335 3.105l-1.51 1.47 1.415 1.376 1.51-1.47C15.32 10.67 16 9.066 16 7.39a6.336 6.336 0 0 0-1.92-4.574zM10.475 15c.552 0 1-.437 1-.976a.988.988 0 0 0-1-.977c-.552 0-1 .438-1 .977 0 .539.448.976 1 .976z" fill="#4C4C4C"/>
</symbol>
<symbol id="unlink" viewBox="0 0 16 16"><path d="M4.22 12.22l-2.46 2.46a.31.31 0 0 1-.22.09.33.33 0 0 1-.22-.09.31.31 0 0 1 0-.44l2.46-2.46a.31.31 0 0 1 .44.44zm1.63.4v3.07a.28.28 0 0 1-.09.22.31.31 0 0 1-.44 0 .28.28 0 0 1-.09-.22v-3.07a.32.32 0 0 1 .09-.23.34.34 0 0 1 .44 0 .32.32 0 0 1 .09.23zm-2.16-2.16a.31.31 0 0 1-.08.22.32.32 0 0 1-.23.09H.31a.28.28 0 0 1-.22-.09.28.28 0 0 1-.09-.22.29.29 0 0 1 .09-.22.28.28 0 0 1 .22-.09h3.07a.32.32 0 0 1 .23.09.33.33 0 0 1 .08.22zm12.16 1.23a2.64 2.64 0 0 1-.82 2l-1.41 1.41a2.69 2.69 0 0 1-2 .8 2.66 2.66 0 0 1-2-.82l-3.13-3.27a3.15 3.15 0 0 1-.4-.54l2.29-.17L11 13.73a.94.94 0 0 0 .65.27.91.91 0 0 0 .66-.26l1.41-1.4a.92.92 0 0 0 0-1.3L11.1 8.39l.17-2.29a3.15 3.15 0 0 1 .54.4L15 9.73a2.71 2.71 0 0 1 .85 1.96zm-5.94-7l-2.29.21L5 2.27A.89.89 0 0 0 4.34 2a1 1 0 0 0-.66.26l-1.41 1.4a.92.92 0 0 0 0 1.3L4.9 7.6l-.17 2.3a3.15 3.15 0 0 1-.54-.4L1 6.27a2.71 2.71 0 0 1-.81-2A2.64 2.64 0 0 1 1 2.36L2.38 1a2.69 2.69 0 0 1 2-.8A2.66 2.66 0 0 1 6.3 1l3.21 3.19a3.15 3.15 0 0 1 .4.54zm6.09.85a.29.29 0 0 1-.09.22.28.28 0 0 1-.22.09h-3.07a.32.32 0 0 1-.23-.09.34.34 0 0 1 0-.44.32.32 0 0 1 .23-.09h3.07a.28.28 0 0 1 .22.09.29.29 0 0 1 .09.22zM10.77.31v3.07a.32.32 0 0 1-.09.23.31.31 0 0 1-.22.08.33.33 0 0 1-.22-.08.32.32 0 0 1-.09-.23V.31a.28.28 0 0 1 .09-.22.29.29 0 0 1 .22-.09.28.28 0 0 1 .22.09.28.28 0 0 1 .09.22zm3.91 1.45l-2.46 2.46a.31.31 0 0 1-.44 0 .31.31 0 0 1 0-.44l2.46-2.46a.31.31 0 0 1 .44.44z"/>
</symbol>
<symbol id="user"><path d="M7.999 8.494c-3.452 0-6.31 2.213-6.515 4.992h13.03c-.205-2.779-3.064-4.992-6.515-4.992z" fill="#6E6E6E"/><path d="M9.808 8.17s-1.721-.382-3.617 0C3.197 8.82 1 11.053 1 13.683c0 .174.175.317.389.317h13.222c.214 0 .389-.143.389-.317 0-2.63-2.198-4.863-5.192-5.513zm-8.01 5.196C1.99 10.721 4.713 8.613 8 8.613s6.008 2.108 6.202 4.753H1.797zM8 7a3 3 0 1 0 0-6 3 3 0 0 0 0 6z" fill="#6E6E6E"/>
</symbol>
<symbol id="vis-apps"><path d="M15.947 25.111a4.427 4.427 0 0 1-1.714-.367L4.45 20.427.342 22.283a.588.588 0 0 0-.342.54.6.6 0 0 0 .342.54l14.902 6.476a1.851 1.851 0 0 0 1.512 0l14.902-6.476a.588.588 0 0 0 .342-.54.6.6 0 0 0-.342-.54l-4.215-1.791-9.782 4.317a4.428 4.428 0 0 1-1.714.302z" fill="#fff"/><path d="M15.947 17.772a4.209 4.209 0 0 1-1.714-.356l-9.782-4.253-4.11 1.781a.6.6 0 0 0-.327.54.61.61 0 0 0 .328.54l14.902 6.475a1.851 1.851 0 0 0 1.512 0l14.903-6.476a.599.599 0 0 0 .327-.54.61.61 0 0 0-.327-.539l-4.216-1.78-9.782 4.252a4.209 4.209 0 0 1-1.714.356z" fill="#477378"/><path d="M31.552 7.605L16.702 1.16a1.852 1.852 0 0 0-1.51 0L.341 7.605a.6.6 0 0 0-.328.54.61.61 0 0 0 .328.54l14.902 6.475a1.936 1.936 0 0 0 1.512 0l14.902-6.476a.6.6 0 0 0 .279-.573.61.61 0 0 0-.385-.506z" fill="#C2DCD3"/>
</symbol>
<symbol id="vis-custom"><path d="M16.429 0L11.5 4.929 9.857 6.57l4.929 4.929 1.643 1.643 1.643-1.643L23 6.571 16.429 0zm0 9.71L13.29 6.57l3.138-3.137 3.138 3.137-3.138 3.138z" fill="#2FB1D3"/><path d="M16.429 9.857L14.786 11.5l-4.929 4.928L16.43 23 23 16.428l-6.571-6.57zm0 9.71l-3.138-3.139 3.138-3.137 3.138 3.137-3.138 3.138z" fill="#C2DCD3"/><path d="M6.571 9.857L4.93 11.5 0 16.428 6.571 23l6.572-6.572-6.572-6.57zm0 9.71l-3.137-3.139 3.137-3.137 3.138 3.137-3.138 3.138z" fill="#477378"/><path d="M6.571 0L0 6.571 4.929 11.5l1.642 1.643L8.214 11.5l4.929-4.929L6.57 0zm0 9.71L3.434 6.57 6.57 3.434 9.71 6.57 6.571 9.71z" fill="#EC8C2D"/><path d="M12.322 5.75v-.821H11.5L9.857 6.57 11.5 8.214h.822v-.821h.82V5.75h-.82z" fill="#2FB1D3"/>
</symbol>
<symbol id="vis-link" viewBox="0 0 24.14 24.14"><g data-name="Layer 2"><g data-name="Layer 1"><path d="M16.31 11.83A4 4 0 0 1 13.49 5l2.82-2.83A4 4 0 1 1 22 7.83l-2.83 2.83a4 4 0 0 1-2.86 1.17z" fill="#c2dcd3"/><path d="M19.14 2a3 3 0 0 1 3 3 3 3 0 0 1-.88 2.12L18.44 10a3 3 0 0 1-4.25-4.24L17 2.88A3 3 0 0 1 19.14 2m0-2a5 5 0 0 0-3.53 1.46l-2.83 2.83a5 5 0 0 0 0 7.07 5 5 0 0 0 7.07 0l2.83-2.82A5 5 0 0 0 19.14 0z" fill="#477378"/><path d="M5 23.14A4 4 0 0 1 2.17 22a4 4 0 0 1 0-5.66L5 13.49a4 4 0 0 1 5.66 5.65L7.83 22A4 4 0 0 1 5 23.14z" fill="#c2dcd3"/><path d="M7.83 13.31A3 3 0 0 1 10 18.44l-2.88 2.82a3 3 0 0 1-4.24 0 3 3 0 0 1 0-4.24l2.83-2.83a3 3 0 0 1 2.12-.88m0-2a5 5 0 0 0-3.54 1.47l-2.83 2.83a5 5 0 0 0 0 7.07 5 5 0 0 0 7.08 0l2.82-2.83a5 5 0 0 0-3.53-8.54z" fill="#477378"/><path d="M14.9 8.24a1 1 0 0 0-.71.3l-5.65 5.65a1 1 0 0 0 .7 1.71 1 1 0 0 0 .71-.29L15.61 10a1 1 0 0 0-.71-1.71z" fill="#477378"/></g></g>
</symbol>
<symbol id="vis-metric"><path d="M11.462 17.425a3.138 3.138 0 0 1-1.232-.268L3.199 14 .245 15.357a.425.425 0 0 0-.178.16.444.444 0 0 0 .178.63l10.712 4.735a1.312 1.312 0 0 0 1.086 0l10.712-4.735a.425.425 0 0 0 .178-.16.443.443 0 0 0-.178-.63l-3.03-1.31-7.032 3.157a3.133 3.133 0 0 1-1.231.221z" fill="#2FB1D3"/><path d="M11.462 11.882c-.424.002-.844-.1-1.233-.3L3.192 8 .236 9.5a.467.467 0 0 0-.172.188.582.582 0 0 0 0 .534c.041.08.1.145.172.187l10.72 5.455c.172.09.357.136.544.136.187 0 .372-.046.544-.136l10.72-5.455a.466.466 0 0 0 .172-.188.58.58 0 0 0 0-.533.467.467 0 0 0-.172-.188L19.732 8l-7.037 3.582c-.39.2-.81.302-1.233.3z" fill="#477378"/><path d="M22.72 4.614L12.024.113a1.37 1.37 0 0 0-1.089 0L.236 4.614A.427.427 0 0 0 0 4.991a.417.417 0 0 0 .236.377l10.736 4.525a1.432 1.432 0 0 0 1.09 0l10.736-4.525a.425.425 0 0 0 .2-.4.418.418 0 0 0-.277-.354z" fill="#C2DCD3"/>
</symbol>
<symbol id="vis-reports"><path d="M6 30h20V8.062L21.454 3H6v27z" fill="#fff"/><path d="M21 9V4l4 5h-4z" fill="#C2DCD3"/><path fill="#477378" d="M9 12h12v1H9zM9 16h14v1H9zM9 20h12v1H9zM9 24h8v1H9z"/>
</symbol>
<symbol id="vis-user-male" viewBox="0 0 32 32"><path fill="#C2DCD3" d="M24 15H8c-2.21 0-4 1.74-4 4.5V27c0 1.38.9 3 2 3h20c1.1 0 2-1.62 2-3v-7.5c0-2.76-1.79-4.5-4-4.5z"/><path fill="#477378" d="M9 15l7 14 7-14z"/><path fill="#FFF" d="M23 9c0-3.87-3.13-7-7-7S9 5.13 9 9c0 1.91.76 3.63 2 4.89V15c0 2.76 2.24 5 5 5s5-2.24 5-5v-1.11c1.24-1.26 2-2.98 2-4.89z"/><path fill="#E58B1C" d="M13 7c3 1 3 1 6-1 2-2 4 4 4 4 1-8-2.58-9-7-9s-9 0-7 9c2-5 4-3 4-3z"/>
</symbol>
<symbol id="warning" viewBox="0 0 32 32"><path d="M26.5 28h-21c-1 0-1.8-.5-2.3-1.3s-.4-1.7 0-2.6L13.8 5.9c.5-.8 1.3-1.4 2.2-1.4.9 0 1.7.5 2.2 1.4l10.5 18.2c.5.8.5 1.8.1 2.6S27.5 28 26.5 28zm-1.2-1.9zm-18.6 0zM7.9 24H24l-8-14-8.1 14z"/>
</symbol></svg>