<svg xmlns="http://www.w3.org/2000/svg" viewBox="0 0 16 16"><path d="M4.22 12.22l-2.46 2.46a.31.31 0 0 1-.22.09.33.33 0 0 1-.22-.09.31.31 0 0 1 0-.44l2.46-2.46a.31.31 0 0 1 .44.44zm1.63.4v3.07a.28.28 0 0 1-.09.22.31.31 0 0 1-.44 0 .28.28 0 0 1-.09-.22v-3.07a.32.32 0 0 1 .09-.23.34.34 0 0 1 .44 0 .32.32 0 0 1 .09.23zm-2.16-2.16a.31.31 0 0 1-.08.22.32.32 0 0 1-.23.09H.31a.28.28 0 0 1-.22-.09.28.28 0 0 1-.09-.22.29.29 0 0 1 .09-.22.28.28 0 0 1 .22-.09h3.07a.32.32 0 0 1 .23.09.33.33 0 0 1 .08.22zm12.16 1.23a2.64 2.64 0 0 1-.82 2l-1.41 1.41a2.69 2.69 0 0 1-2 .8 2.66 2.66 0 0 1-2-.82l-3.13-3.27a3.15 3.15 0 0 1-.4-.54l2.29-.17L11 13.73a.94.94 0 0 0 .65.27.91.91 0 0 0 .66-.26l1.41-1.4a.92.92 0 0 0 0-1.3L11.1 8.39l.17-2.29a3.15 3.15 0 0 1 .54.4L15 9.73a2.71 2.71 0 0 1 .85 1.96zm-5.94-7l-2.29.21L5 2.27A.89.89 0 0 0 4.34 2a1 1 0 0 0-.66.26l-1.41 1.4a.92.92 0 0 0 0 1.3L4.9 7.6l-.17 2.3a3.15 3.15 0 0 1-.54-.4L1 6.27a2.71 2.71 0 0 1-.81-2A2.64 2.64 0 0 1 1 2.36L2.38 1a2.69 2.69 0 0 1 2-.8A2.66 2.66 0 0 1 6.3 1l3.21 3.19a3.15 3.15 0 0 1 .4.54zm6.09.85a.29.29 0 0 1-.09.22.28.28 0 0 1-.22.09h-3.07a.32.32 0 0 1-.23-.09.34.34 0 0 1 0-.44.32.32 0 0 1 .23-.09h3.07a.28.28 0 0 1 .22.09.29.29 0 0 1 .09.22zM10.77.31v3.07a.32.32 0 0 1-.09.23.31.31 0 0 1-.22.08.33.33 0 0 1-.22-.08.32.32 0 0 1-.09-.23V.31a.28.28 0 0 1 .09-.22.29.29 0 0 1 .22-.09.28.28 0 0 1 .22.09.28.28 0 0 1 .09.22zm3.91 1.45l-2.46 2.46a.31.31 0 0 1-.44 0 .31.31 0 0 1 0-.44l2.46-2.46a.31.31 0 0 1 .44.44z"/></svg>