<svg width="23" height="21" fill="none" xmlns="http://www.w3.org/2000/svg"><path d="M11.462 17.425a3.138 3.138 0 0 1-1.232-.268L3.199 14 .245 15.357a.425.425 0 0 0-.178.16.444.444 0 0 0 .178.63l10.712 4.735a1.312 1.312 0 0 0 1.086 0l10.712-4.735a.425.425 0 0 0 .178-.16.443.443 0 0 0-.178-.63l-3.03-1.31-7.032 3.157a3.133 3.133 0 0 1-1.231.221z" fill="#2FB1D3"/><path d="M11.462 11.882c-.424.002-.844-.1-1.233-.3L3.192 8 .236 9.5a.467.467 0 0 0-.172.188.582.582 0 0 0 0 .534c.041.08.1.145.172.187l10.72 5.455c.172.09.357.136.544.136.187 0 .372-.046.544-.136l10.72-5.455a.466.466 0 0 0 .172-.188.58.58 0 0 0 0-.533.467.467 0 0 0-.172-.188L19.732 8l-7.037 3.582c-.39.2-.81.302-1.233.3z" fill="#477378"/><path d="M22.72 4.614L12.024.113a1.37 1.37 0 0 0-1.089 0L.236 4.614A.427.427 0 0 0 0 4.991a.417.417 0 0 0 .236.377l10.736 4.525a1.432 1.432 0 0 0 1.09 0l10.736-4.525a.425.425 0 0 0 .2-.4.418.418 0 0 0-.277-.354z" fill="#C2DCD3"/></svg>