<svg xmlns="http://www.w3.org/2000/svg" viewBox="0 0 24.14 24.14"><g data-name="Layer 2"><g data-name="Layer 1"><path d="M16.31 11.83A4 4 0 0 1 13.49 5l2.82-2.83A4 4 0 1 1 22 7.83l-2.83 2.83a4 4 0 0 1-2.86 1.17z" fill="#c2dcd3"/><path d="M19.14 2a3 3 0 0 1 3 3 3 3 0 0 1-.88 2.12L18.44 10a3 3 0 0 1-4.25-4.24L17 2.88A3 3 0 0 1 19.14 2m0-2a5 5 0 0 0-3.53 1.46l-2.83 2.83a5 5 0 0 0 0 7.07 5 5 0 0 0 7.07 0l2.83-2.82A5 5 0 0 0 19.14 0z" fill="#477378"/><path d="M5 23.14A4 4 0 0 1 2.17 22a4 4 0 0 1 0-5.66L5 13.49a4 4 0 0 1 5.66 5.65L7.83 22A4 4 0 0 1 5 23.14z" fill="#c2dcd3"/><path d="M7.83 13.31A3 3 0 0 1 10 18.44l-2.88 2.82a3 3 0 0 1-4.24 0 3 3 0 0 1 0-4.24l2.83-2.83a3 3 0 0 1 2.12-.88m0-2a5 5 0 0 0-3.54 1.47l-2.83 2.83a5 5 0 0 0 0 7.07 5 5 0 0 0 7.08 0l2.82-2.83a5 5 0 0 0-3.53-8.54z" fill="#477378"/><path d="M14.9 8.24a1 1 0 0 0-.71.3l-5.65 5.65a1 1 0 0 0 .7 1.71 1 1 0 0 0 .71-.29L15.61 10a1 1 0 0 0-.71-1.71z" fill="#477378"/></g></g></svg>