<svg width="23" height="23" fill="none" xmlns="http://www.w3.org/2000/svg"><path d="M16.429 0L11.5 4.929 9.857 6.57l4.929 4.929 1.643 1.643 1.643-1.643L23 6.571 16.429 0zm0 9.71L13.29 6.57l3.138-3.137 3.138 3.137-3.138 3.138z" fill="#2FB1D3"/><path d="M16.429 9.857L14.786 11.5l-4.929 4.928L16.43 23 23 16.428l-6.571-6.57zm0 9.71l-3.138-3.139 3.138-3.137 3.138 3.137-3.138 3.138z" fill="#C2DCD3"/><path d="M6.571 9.857L4.93 11.5 0 16.428 6.571 23l6.572-6.572-6.572-6.57zm0 9.71l-3.137-3.139 3.137-3.137 3.138 3.137-3.138 3.138z" fill="#477378"/><path d="M6.571 0L0 6.571 4.929 11.5l1.642 1.643L8.214 11.5l4.929-4.929L6.57 0zm0 9.71L3.434 6.57 6.57 3.434 9.71 6.57 6.571 9.71z" fill="#EC8C2D"/><path d="M12.322 5.75v-.821H11.5L9.857 6.57 11.5 8.214h.822v-.821h.82V5.75h-.82z" fill="#2FB1D3"/></svg>