<svg width="32" height="31" fill="none" xmlns="http://www.w3.org/2000/svg"><path d="M15.947 25.111a4.427 4.427 0 0 1-1.714-.367L4.45 20.427.342 22.283a.588.588 0 0 0-.342.54.6.6 0 0 0 .342.54l14.902 6.476a1.851 1.851 0 0 0 1.512 0l14.902-6.476a.588.588 0 0 0 .342-.54.6.6 0 0 0-.342-.54l-4.215-1.791-9.782 4.317a4.428 4.428 0 0 1-1.714.302z" fill="#fff"/><path d="M15.947 17.772a4.209 4.209 0 0 1-1.714-.356l-9.782-4.253-4.11 1.781a.6.6 0 0 0-.327.54.61.61 0 0 0 .328.54l14.902 6.475a1.851 1.851 0 0 0 1.512 0l14.903-6.476a.599.599 0 0 0 .327-.54.61.61 0 0 0-.327-.539l-4.216-1.78-9.782 4.252a4.209 4.209 0 0 1-1.714.356z" fill="#477378"/><path d="M31.552 7.605L16.702 1.16a1.852 1.852 0 0 0-1.51 0L.341 7.605a.6.6 0 0 0-.328.54.61.61 0 0 0 .328.54l14.902 6.475a1.936 1.936 0 0 0 1.512 0l14.902-6.476a.6.6 0 0 0 .279-.573.61.61 0 0 0-.385-.506z" fill="#C2DCD3"/></svg>